<?xml version="1.0" standalone="no"?>
<svg width="105" height="108" viewBox="0 0 105 108" xmlns="http://www.w3.org/2000/svg" xmlns:xlink="http://www.w3.org/1999/xlink" version="1.1"><!--?xml version="1.0" encoding="utf-8"?-->
<!-- Generator: Adobe Illustrator 15.0.2, SVG Export Plug-In . SVG Version: 6.00 Build 0)  -->

<svg version="1.1" id="Ebene_1" xmlns="http://www.w3.org/2000/svg" xmlns:xlink="http://www.w3.org/1999/xlink" x="0px" y="0px" width="100px" height="100px" viewBox="0 0 100 100" enable-background="new 0 0 100 100" xml:space="preserve">
<circle fill="#B2B2B2" cx="50" cy="50" r="50"></circle></svg><path d="M 50 23.95492515283071 L 42.5 23.910719801450494 L 37.75 29.45535990072525 L 33 35 L 36 35 L 39 35 L 38.25 37.129909566904345 C 37.8375 38.30135982870173 36.6 39.74458249808552 35.5 40.33707105442387 C 34.4 40.92955961076223 30.125 41.413350735380384 26 41.412162442464215 C 21.875 41.410974149548046 17.15 41.110609620739126 15.5 40.744685711777734 C 13.85 40.37876180281634 12.95 40.291902649373505 13.5 40.55166537079365 C 14.05 40.811428092213795 14.275 42.43101819224363 14 44.15075448197105 L 13.5 47.277547736020914 L 15.5 46.87855819932762 C 16.733324151478506 46.63251648343209 17.62455769592886 45.525139905210274 17.824929228353973 43.98978433131717 L 18.14985845670795 41.5 L 21.324929228353973 42.26225490196079 C 23.07121815275929 42.68149509803922 24.95 43.01774840608325 25.5 43.00948447539196 C 26.05 43.001220544700665 26.61207664158401 44.00820583881831 26.749059203520027 45.24722957343117 C 26.886041765456042 46.48625330804403 27.219124462245446 47.725 27.48924297416315 48 C 27.759361486080856 48.275 28.659784844496844 48.1625 29.490183770643124 47.75 C 30.353919318581152 47.320940059884336 30.893019980038556 45.938686423275726 30.75 44.51983226141955 L 30.5 42.03966452283911 L 32.25 42.01983226141955 C 33.2125 42.0089245176388 34.9 41.55 36 41 L 38 40 L 37.48585555070039 42.75 C 37.2030761035856 44.2625 35.63444110577043 54.5 34 65.5 C 32.365558894229565 76.5 30.79692389641439 86.7375 30.514144449299607 88.25 C 30.231365002184823 89.7625 30.45 91 31 91 C 31.549999999999997 91 32.1125 89.7625 32.25 88.25 L 32.5 85.5 L 51.25 85.25 L 70 85 L 70.66000443530247 87.75 C 71.04324784177318 89.34683679597012 71.47785798484162 89.87100188871098 71.69643873121261 89 C 71.90347515454683 88.175 70.47677868470939 77.15 68.52600213157385 64.5 C 66.57522557843832 51.85 65.09633014527876 41.405668970408314 65.2395678356637 41.29037548979625 C 65.38280552604867 41.17508200918418 67.17962427874399 41.62508200918418 69.23249839720887 42.29037548979625 L 72.96499679441774 43.5 L 73.23249839720887 46 C 73.3853552295771 47.42855996724236 74.13865513569067 48.5 74.99017937580444 48.5 C 75.8097780324969 48.5 76.70977803249689 47.375 76.99017937580444 46 L 77.5 43.5 L 81.67799894381493 43.5 L 85.85599788762985 43.5 L 85.67799894381493 46 L 85.5 48.5 L 87.5 48.5 L 89.5 48.5 L 89.5 46 L 89.5 43.5 L 92 42.943757990408415 C 93.375 42.63782488513305 89.775 42.45460949120489 84 42.53661267056806 L 73.5 42.685709360319294 L 69 41.049814980590085 L 64.5 39.41392060086088 L 64.13030705468836 36.95696030043044 L 63.76061410937672 34.5 L 66.86949976049718 35 L 69.97838541161762 35.5 L 69.9254728287872 35 C 69.89637090823048 34.725 67.08873419061652 32.137304363447456 63.68628012297839 29.249565252105466 L 57.5 23.99913050421093 L 50 23.95492515283071 Z M 51.25 35.25 L 62.5 35.5 L 63 39.74137216916144 L 63.5 43.982744338322874 L 51 44.01452031730958 L 38.5 44.04629629629629 L 39.26225490196079 40.773148148148145 C 39.681495098039214 38.97291666666666 40.01899509803921 36.9375 40.01225490196079 36.25 L 40 35 L 51.25 35.25 Z M 40.91666666666667 45.5 L 43 45.5 L 43 47.75 L 43 50 L 40.5 50 L 38 50 L 37.97222222222222 48.25 C 37.956944444444446 47.2875 38.144444444444446 46.275 38.388888888888886 46 C 38.63333333333333 45.725 39.770833333333336 45.5 40.91666666666667 45.5 Z M 47 45.5 L 49 45.5 L 49 47.75 L 49 50 L 47 50 L 45 50 L 45 47.75 L 45 45.5 L 47 45.5 Z M 53.5692443293442 45.25 L 56 45 L 56 47.5 L 56 50 L 53.25 49.98016773858045 L 50.5 49.960335477160896 L 50.8192443293442 47.73016773858045 L 51.1384886586884 45.5 L 53.5692443293442 45.25 Z M 60.432337422260765 45.25 L 63.86467484452153 45.5 L 64.18233742226076 47.73016773858045 L 64.5 49.960335477160896 L 61 49.98277154365751 L 57.5 50.00520761015413 L 57.25 47.502603805077065 L 57 45 L 60.432337422260765 45.25 Z " fill="#000000" transform="matrix(1 0 0 1 -1.89 -5.94)"></path></svg>
