<?xml version="1.0" standalone="no"?>
<svg width="105" height="108" viewBox="0 0 105 108" xmlns="http://www.w3.org/2000/svg" xmlns:xlink="http://www.w3.org/1999/xlink" version="1.1"><!--?xml version="1.0" encoding="utf-8"?-->
<!-- Generator: Adobe Illustrator 15.0.2, SVG Export Plug-In . SVG Version: 6.00 Build 0)  -->

<svg version="1.1" id="Ebene_1" xmlns="http://www.w3.org/2000/svg" xmlns:xlink="http://www.w3.org/1999/xlink" x="0px" y="0px" width="100px" height="100px" viewBox="0 0 100 100" enable-background="new 0 0 100 100" xml:space="preserve">
<circle fill="#B2B2B2" cx="50" cy="50" r="50"></circle></svg><path d="M 52.5 12.551492410858497 C 50.85 12.276267915193243 48.4875 12.489590283614294 47.25 13.025542118460836 C 46.0125 13.561493953307377 44.55 14.9 44 16 C 43.45 17.1 43 19.35 43 21 C 43 23.11282778137263 43.81324120040842 24.601675881645132 45.75 26.034585401837905 C 47.2625 27.153607372848754 49.85 28.0727091938293 51.5 28.07703389290579 C 53.15 28.081358591982273 55.625 27.205554066162584 57 26.13080161330648 C 58.83270119050497 24.698292449781007 59.5 23.22631916908677 59.5 20.616130900016376 C 59.5 18.389498050682263 58.75071519848503 16.305586100530434 57.5 15.053728070175438 C 56.4 13.952722953216375 54.15 12.82671690652375 52.5 12.551492410858497 Z M 52.338872440387426 30.231541991551648 C 42.42073565171847 30.00663854207101 40.04911709007448 30.24999816031886 37.72088500237757 31.731541991551648 C 35.988131497757095 32.83415984454966 34.57622317366318 34.911908324093915 33.97088500237757 37.25 C 33.436898251069906 39.3125 33.29526314339426 42.9125 33.656140318653904 45.25 C 34.01701749391355 47.5875 35.174183907476646 51.525 36.22762123768301 54 C 37.28105856788937 56.475 38.72524150161342 59.175 39.436916645958675 60 C 40.396049811230704 61.11186243841269 40.52021111127585 63.05255024634921 39.91675155115588 67.5 C 39.468985604669086 70.8 38.74203952755077 77.15193473089361 38.30131582422631 81.61541051309693 C 37.64755128386193 88.23647983877225 37.77620436175286 90.04000692094858 39 91.40993586416681 C 39.825 92.33344902505193 41.175 93.08368192515407 42 93.07712008661599 C 42.825 93.07055824807792 44.27070243676594 92.26302184009647 45.21267208170208 91.28259473554611 C 46.38944233796497 90.05778089863418 47.24381778632861 86.52741266348387 47.94314417237822 80 C 48.502934177313946 74.775 49.24431173380805 68.475 49.59064985347621 66 C 49.936987973144376 63.525 50.42080558371679 61.275 50.66580009919269 61 C 50.91079461466858 60.725 51.513848841925125 61.175 52.00592060420722 62 C 52.49799236648931 62.825 53.138988462119315 65.525 53.43035637227389 68 C 53.72172428242847 70.475 54.20631636111499 74.975 54.50722765824395 78 C 54.8081389553729 81.025 55.267112808366214 85.1875 55.52716955378466 87.25 C 55.83361301953086 89.68039128665777 56.70379131378253 91.35189565689126 58 92 C 59.1 92.55 60.7875 92.79513289884025 61.75 92.54473977520055 C 62.7125 92.29434665156087 63.812309554148385 91.05684665156087 64.19402123144084 89.79473977520055 C 64.57573290873331 88.53263289884025 64.24701805721391 82.775 63.46354378361994 77 C 62.68006951002597 71.225 62.03025995587759 65.0375 62.01952255217909 63.25 C 62.00847665441929 61.411143717786764 62.43419806701131 60.217099033505654 63 60.5 C 63.55 60.775 64 60.55 64 60 C 64 59.45 65.07290892549057 56.6375 66.38424205664572 53.75 C 68.00640603672615 50.178063639057015 68.80548396008663 46.502305191598786 68.88424205664572 42.25 C 68.98193842815446 36.97517993809799 68.62379468410731 35.57092082723688 66.58887244038743 33.25 L 64.17774488077485 30.5 L 52.338872440387426 30.231541991551648 Z M 41.75 36.95547464893012 C 41.8875 36.97996359201855 41.9591109066533 40.0375 41.90913534811844 43.75 L 41.81827069623688 50.5 L 40.40913534811844 45.25 C 39.27779635771287 41.03498282116048 39.246424481228686 39.695512913294436 40.25 38.45547464893012 C 40.9375 37.60598570584168 41.6125 36.930985705841685 41.75 36.95547464893012 Z M 62.233333333333334 37.769496602107345 C 63.22722212104887 38.765605895957975 63.26079136025375 40.38073807395809 62.38921487508327 45.269496602107345 L 61.278429750166545 51.5 L 61.1225482084166 44 C 60.99672134479886 37.946034491710606 61.21088582526668 36.744764783167554 62.233333333333334 37.769496602107345 Z M 47.5 37.987534996739285 C 48.05 38.01123480050145 49.175 38.43237857381289 50 38.92341004854249 C 50.918190479079314 39.46990753342127 52.081809520920686 39.4060431339077 53 38.75875719253773 C 53.825 38.17716664700551 55.2875 37.99352287369406 56.25 38.3506599185123 C 57.2125 38.70779696333054 58 39.675 58 40.5 C 58 41.325 56.5375 43.621723892184434 54.75 45.60383087152096 L 51.5 49.207661743041925 L 48.25 45.60383087152096 C 46.4625 43.621723892184434 44.9875 41.4375 44.97222222222222 40.75 C 44.956944444444446 40.0625 45.294444444444444 39.15 45.72222222222222 38.72222222222222 C 46.15 38.294444444444444 46.95 37.96383519297712 47.5 37.987534996739285 Z " fill="#000000" transform="matrix(1 0 0 1 -2.16 -4.05)"></path></svg>
