<?xml version="1.0" standalone="no"?>
<svg width="105" height="108" viewBox="0 0 105 108" xmlns="http://www.w3.org/2000/svg" xmlns:xlink="http://www.w3.org/1999/xlink" version="1.1"><!--?xml version="1.0" encoding="utf-8"?-->
<!-- Generator: Adobe Illustrator 15.0.2, SVG Export Plug-In . SVG Version: 6.00 Build 0)  -->

<svg version="1.1" id="Ebene_1" xmlns="http://www.w3.org/2000/svg" xmlns:xlink="http://www.w3.org/1999/xlink" x="0px" y="0px" width="100px" height="100px" viewBox="0 0 100 100" enable-background="new 0 0 100 100" xml:space="preserve">
<circle fill="#B2B2B2" cx="50" cy="50" r="50"></circle></svg><path d="M 61 19.799307151933544 C 60.175 19.52172656528988 58.825 19.512046277035115 58 19.77779540025628 C 57.175 20.04354452347745 55.69783236900425 20.989756108828445 54.71740526445389 21.880487812147386 C 53.73697815990353 22.771219515466324 52.94947815990353 24.7375 52.96740526445389 26.25 C 52.993043678425494 28.413098955724653 52.626517517279325 28.8858558116743 51.25 28.465162788586877 C 50.10434333812052 28.115025751857456 46.391948546808756 30.278914336431324 40.5 34.731145689599835 C 35.4776523787141 38.526265991203886 31.3521248188938 42.4088247279365 31.165411528398558 43.51598290101296 C 30.981387869017766 44.60719230545583 31.43138786901777 46.187627551020405 32.16541152839856 47.02806122448979 C 32.89943518777935 47.868494897959174 34.1434737193381 48.76849489795917 34.929941598529105 49.02806122448979 C 36.11226122774367 49.4182746979961 36.025676583458456 50.06106025301295 34.429941598529105 52.73995240521403 L 32.5 55.979904810428046 L 29 55.3720965718055 C 26.75201745715298 54.981713054713474 24.42684217958316 55.30903819949848 22.5 56.28713014438256 C 20.85 57.12469314054234 18.469333327283206 58.86522826557618 17.2096296161849 60.154985977791085 C 15.83732117259592 61.56003494530849 14.671441012707103 64.30376010806428 14.301005184341818 67 C 13.816803894730665 70.52428877772846 14.129895604500216 72.25888650621121 15.74499051709519 75 C 16.87922217652493 76.925 19.31310317085432 79.34746433866103 21.15361494893827 80.3832540859134 C 23.681731134168576 81.80600880865167 25.600354513917377 82.11706168399466 29 81.655333148924 C 32.03913456690523 81.24256800702777 34.39671370018281 80.14423935247498 36.26220626445672 78.2720790630106 C 37.78141970990792 76.74743557835477 39.58141970990792 74.24464237993492 40.26220626445672 72.71031639985537 C 40.942992819005525 71.17599041977581 41.95 69.88517324149444 42.5 69.8418337814523 C 43.05 69.79849432141016 44.175 69.84195890459803 45 69.93842174409201 C 45.825 70.03488458358598 46.83060925146732 69.52570176186735 47.234687225482936 68.80690436249506 C 47.79309910832236 67.81356883080373 47.97304848323592 67.79991562485594 47.984687225482936 68.75 C 47.993738473724825 69.48886416140678 49.32895318034239 70.00310564283089 51.25 70.00759495469794 L 54.5 70.01518990939587 L 59 61.522060291419706 L 63.5 53.02893067344353 L 64.66649055544494 55.76446533672177 C 65.66270983107465 58.100697163023625 65.54734037852995 58.79193769125766 63.876120171629864 60.5 C 62.79984665503686 61.6 61.655972554675095 64.525 61.334177726381505 67 C 60.92610725580866 70.1385663344047 61.24086175918958 72.48325764737437 62.374548110196585 74.75 C 63.26854664958846 76.5375 65.4625 78.9250503349194 67.25 80.05566741093202 C 69.60470559413037 81.54504942699144 71.78520821817237 82.027131030152 75.1654225489134 81.80566741093202 C 78.73809545879996 81.57159436245192 80.56394702169784 80.79733075992355 82.96077543514153 78.5 C 84.68223712066462 76.85 86.57492187676829 73.925 87.16674155981633 72 C 87.9272984489215 69.52615187790468 87.93267474990579 67.47384812209532 87.18507905336884 65 C 86.60334499177468 63.075 84.74872008866 60.2625 83.06369037978064 58.75 C 81.37866067090128 57.2375 78.3125 55.726990378311456 76.25 55.393311951803234 C 74.1875 55.05963352529501 71.6 55.24784621595658 70.5 55.81156237549561 C 68.75312747447653 56.70678080394318 68.27851345983304 56.34059243032683 66.75 52.91825042369237 C 65.30690094172859 49.687151282834066 65.21921495837756 48.6439050198353 66.25 46.96948744510752 C 67.28069147565633 45.29522185987486 67.2368297707876 44.7715679790364 66 43.98480021962459 C 65.175 43.46000415079983 62.3625 43.02373480050145 59.75 43.015312774517064 C 55.524860759558905 43.001692015676625 54.98907905895116 42.751381745472095 54.90116527281337 40.75 C 54.84680617286073 39.5125 54.734306172860734 36.64164473403015 54.65116527281337 34.370321631178115 L 54.5 30.24064326235623 L 56.5 31.62805365938818 C 57.6 32.39112937775575 59.175 33.020965751221894 60 33.0276900448685 C 60.825 33.034414338515106 62.5125 32.130934925820576 63.75 31.019958016658435 C 65.0219018822089 29.878096504049193 66.01416926643891 27.804546744921975 66.03259473554611 26.25 C 66.05052184009648 24.7375 65.26302184009647 22.78089980372109 64.28259473554611 21.901999563824646 C 63.302167630995754 21.0230993239282 61.825 20.076887738577206 61 19.799307151933544 Z M 49.25 40.03160124273151 C 49.6625 40.01422055922918 50.28704936167836 41.2375 50.63788747039636 42.75 C 50.98872557911435 44.2625 51.77622557911435 46.08253640798144 52.38788747039636 46.79452535106988 C 53.257835396780905 47.807165362613354 52.955620279484215 48.06965974360273 51 48 C 48.75200442069641 47.919925766102374 48.651202652417844 48.07112841852022 50 49.5 C 50.97639504802908 50.53436082442426 53.1580823479079 51.07350823926747 56.25 51.04452535106988 C 58.8625 51.02003640798144 60.99068124738177 51.3375 60.979291660848375 51.75 C 60.96790207431498 52.1625 59.28040207431498 55.562618698175996 57.229291660848375 59.30581932928 C 54.03419929681339 65.13674470266241 53.32094478476247 65.88877660666004 52.25 64.55581932928 C 51.5625 63.700118698176 50.55 63.225 50 63.5 C 49.45 63.775 49.9 61.525 51 58.5 L 53 53 L 49.833783083554664 50.25 C 48.092363779509725 48.7375 45.842363779509725 46.9375 44.833783083554664 46.25 L 43 45 L 45.75 42.53160124273151 C 47.2625 41.17398192623384 48.8375 40.04898192623384 49.25 40.03160124273151 Z M 37.76008130618756 50.25 C 38.4420365877844 50.6625 38.98842861175804 51.5625 38.97428580390675 52.25 C 38.96014299605547 52.9375 40.074337424159154 54.625 41.45027342191496 56 C 43.42265414837027 57.971038989676465 43.82216453134992 59.13475321238824 43.33845787777535 61.5 C 43.00102333074277 63.15 42.36847222410617 65.175 41.93278875191625 66 C 41.32023372657719 67.15991982290394 40.882871869265024 66.81983964580789 40.00370605274158 64.5 C 39.37839404038543 62.85 37.996750718918335 60.4875 36.93338756059248 59.25 L 35 57 L 36.5 54.5 C 37.325 53.125 37.6670365877844 51.4375 37.26008130618756 50.75 C 36.769301222770906 49.92088849166673 36.9376566194376 49.75253309500004 37.76008130618756 50.25 Z M 27.75 58.035435415729395 C 29.5375 58.01594593707823 31 58.225 31 58.5 C 31 58.775 29.875 61.025 28.5 63.5 C 27.125 65.975 26.225 68.45 26.5 69 C 26.775 69.55 29.475 70 32.5 70 C 35.525 70 38 70.225 38 70.5 C 38 70.775 37.4375 72.17909076361403 36.75 73.62020169692008 C 36.0625 75.06131263022611 34.2625 76.86131263022611 32.75 77.62020169692008 C 31.237499999999997 78.37909076361403 28.425 79 26.5 79 C 23.944444444444443 79 22.19047619047619 78.19047619047619 20 76 C 17.710866961988792 73.71086696198878 17.00839662210879 72.11141629751401 17.0354354157294 69.25 C 17.05492489438057 67.1875 17.708170179286395 64.375 18.487091604409017 63 C 19.266013029531635 61.625 20.937567092453406 59.95344593707823 22.201656188679614 59.285435415729395 C 23.46574528490583 58.61742489438057 25.9625 58.05492489438057 27.75 58.035435415729395 Z M 74.75 58.078947368421055 C 76.83654602675058 58.028262039836015 79.07395751376869 58.89496459480724 81 60.5 C 82.9583089658429 62.131924138202415 84.21843061360957 64.30211379269637 84.62906545159903 66.75 C 85.05899257765424 69.31289185586154 84.74779854103147 71.44968651531077 83.64602305306312 73.5 C 82.7593637354889 75.15 80.90128428226934 77.0625 79.5169576014641 77.75 C 78.13263092065884 78.4375 75.425 79 73.5 79 C 70.94444444444444 79 69.19047619047619 78.19047619047619 67 76 C 64.59094906836974 73.59094906836974 64.00626472432596 72.16282215314288 64.03180337187047 68.75 C 64.04929522639921 66.4125 64.69060745887589 63.6 65.45694166626308 62.5 L 66.85027658878525 60.5 L 67.89118760883704 64 C 68.46830612967739 65.94052592779806 70.06650403789143 68.1683460309437 71.47809731029236 69 C 73.48658766156096 70.18332171532865 74.28545100314945 70.24169874957708 75.26204799584795 69.2765126489918 C 76.24306183708758 68.30696130782911 75.98112252726548 67.86759314544842 74 67.1595959130176 C 72.39831665487135 66.58719952663817 71.05084167256433 64.96070284620811 70.25 62.6330832640258 L 69 59 L 70.25 58.578947368421055 C 70.9375 58.34736842105263 72.9625 58.12236842105263 74.75 58.078947368421055 Z M 35.75 62.400721341272344 C 36.9875 63.830324603572556 38 65.45 38 66 C 38 66.55 36.2 67 34 67 C 31.799999999999997 67 30.12693932724872 66.6625 30.282087393886044 66.25 C 30.437235460523368 65.8375 31.22473546052337 64.21782460357255 32.032087393886044 62.650721341272344 L 33.5 59.80144268254468 L 35.75 62.400721341272344 Z " fill="#000000"></path></svg>
