<?xml version="1.0" standalone="no"?>
<svg width="105" height="108" viewBox="0 0 105 108" xmlns="http://www.w3.org/2000/svg" xmlns:xlink="http://www.w3.org/1999/xlink" version="1.1"><!--?xml version="1.0" encoding="utf-8"?-->
<!-- Generator: Adobe Illustrator 15.0.2, SVG Export Plug-In . SVG Version: 6.00 Build 0)  -->

<svg version="1.1" id="Ebene_1" xmlns="http://www.w3.org/2000/svg" xmlns:xlink="http://www.w3.org/1999/xlink" x="0px" y="0px" width="100px" height="100px" viewBox="0 0 100 100" enable-background="new 0 0 100 100" xml:space="preserve">
<circle fill="#B2B2B2" cx="50" cy="50" r="50"></circle></svg><path d="M 51 18 L 49 17 L 47 19 L 45 21 L 42.75 20.95547464893012 L 40.5 20.91094929786024 L 39.25 22.45547464893012 L 38 24 L 39 26 L 40 28 L 42.75 29.46891057728471 L 45.5 30.93782115456942 L 46.1938480704719 30.21891057728471 L 46.887696140943795 29.5 L 47.50000000000002 37 C 47.83676712248094 41.125 47.974535490768595 44.617289028199245 47.80615192952813 44.76064228488721 C 47.63776836828765 44.90399554157518 46.66299256150599 44.678995541575176 45.639983470013306 44.26064228488721 L 43.77996694002662 43.5 L 44.139983470013306 37.81762446215521 L 44.5 32.13524892431042 L 42.76787874608642 33.81762446215521 L 41.035757492172834 35.5 L 40.14820346135842 42 L 39.26064943054401 48.5 L 40.130324715272 50.75 C 40.608646121872404 51.9875 41.3375 53.001147535674384 41.75 53.0025500792764 L 42.5 53.00510015855281 L 42.52291084538852 60.7525500792764 C 42.53551181035221 65.01364753567438 42.837964110129185 69.85 43.195027067115134 71.5 C 43.55209002410108 73.15 44.375566773104886 77.425 45.02497539823469 81 L 46.20571835301616 87.5 L 45.102859176508076 89.75 L 44 92 L 45.25 92.65581740972675 L 46.5 93.31163481945352 L 48 91.35399741544325 L 49.5 89.39636001143299 L 49.362894404362024 76.4481800057165 L 49.22578880872404 63.5 L 51.00264901571641 67.5 C 51.97992212956221 69.7 53.5041196475993 73.4125 54.38975461135439 75.75 L 56 80 L 56.014741802397026 84.25 L 56.02948360479406 88.5 L 57.264741802397026 90.92103117932476 C 57.944133811078665 92.25259832795338 59.13566995516587 93.60259832795339 59.91259990036861 93.92103117932476 L 61.325199800737224 94.5 L 60.63159052469592 89.5 C 60.250105422873204 86.75 59.83943546770733 77.72919769474578 59.71899062432731 69.45377265499062 L 59.5 54.40754530998123 L 61.41062095212901 51.453772654990615 L 63.32124190425802 48.5 L 63.35169817142915 46 C 63.36844911837328 44.625 62.62116968991523 41.1375 61.69107721930015 38.25 L 60 33 L 57.5082440357108 31.75 L 55.016488071421605 30.5 L 57.2582440357108 29.470467030668246 L 59.5 28.440934061336492 L 59.5 25.50789438915284 L 59.5 22.574854716969185 L 56.22405676378064 21.537427358484592 C 54.42228798385998 20.966842311318068 52.95978798385998 20.1625 52.97405676378064 19.75 C 52.988325543701286 19.3375 52.1 18.55 51 18 Z M 53.09438770966767 28.5 C 53.58495377450831 29.05 54.473749552340074 32.425 55.0694894381827 36 C 55.66522932402532 39.575 56.343305971915285 42.8375 56.57632643349373 43.25 L 57 44 L 55.25 45.46819662812954 C 54.2875 46.275704773600786 52.9375 46.95070477360079 52.25 46.96819662812954 L 51 47 L 51.013654683292444 39.75 C 51.021164759103286 35.7625 51.2917158763437 31.375 51.61487938827115 30 L 52.20244940995741 27.5 L 53.09438770966767 28.5 Z " fill="#000000" transform="matrix(1 0 0 1 -2.16 -5.94)"></path></svg>
