<?xml version="1.0" standalone="no"?>
<svg width="105" height="108" viewBox="0 0 105 108" xmlns="http://www.w3.org/2000/svg" xmlns:xlink="http://www.w3.org/1999/xlink" version="1.1"><!--?xml version="1.0" encoding="utf-8"?-->
<!-- Generator: Adobe Illustrator 15.0.2, SVG Export Plug-In . SVG Version: 6.00 Build 0)  -->

<svg version="1.1" id="Ebene_1" xmlns="http://www.w3.org/2000/svg" xmlns:xlink="http://www.w3.org/1999/xlink" x="0px" y="0px" width="100px" height="100px" viewBox="0 0 100 100" enable-background="new 0 0 100 100" xml:space="preserve">
<circle fill="#B2B2B2" cx="50" cy="50" r="50"></circle></svg><path d="M 34.5 25.477597708369693 C 32.225601230945344 25.191139043863906 29.205799076790996 25.546350655600143 27.5 26.30098982322497 C 25.85 27.030943686796867 23.291981133299792 29.174338466214298 21.815513629555095 31.064089333041483 C 20.3390461258104 32.953840199868665 18.706507019038508 36.3 18.187648947839783 38.5 C 17.621665426294967 40.89981570397833 17.596476254434275 44.50023037002709 18.124683270890415 47.5 C 18.608910219766983 50.25 20.309967485763472 55.2 21.90481052866039 58.5 C 23.666330163928635 62.14488206051065 26.91058125592931 66.46259828290779 30.170004481632738 69.5 C 33.12101811287061 72.25 38.00249995364601 75.74285153699394 41.01774190557807 77.26189230443099 C 44.03298385751013 78.78093307186803 47.625 80.003734284799 49 79.97922833316646 C 50.375 79.95472238153393 54.14958734937669 78.48687084453998 57.38797188750375 76.71733602873547 C 60.62635642563082 74.94780121293097 65.35135642563081 71.41975575520816 67.88797188750375 68.87723501157367 C 70.4245873493767 66.33471426793919 73.79473044817627 61.6097142679392 75.37717877372505 58.377235011573674 C 76.95962709927383 55.14475575520815 78.70574125640188 50.25 79.25743245623181 47.5 C 79.98830750004522 43.85682720495379 79.92255893443155 41.278855515541586 79.01514454597464 38 C 78.26959066536072 35.30601202198106 76.3109691495997 32.03749286800796 74.13489086346786 29.855903496841066 C 72.0578737298294 27.77362615812832 68.99993899151049 25.896016378508897 67 25.474992192916616 C 64.30003046833092 24.90659861790241 62.36620919121873 25.282406416589115 58.53985412078947 27.11908869607555 C 55.67108423317258 28.496122118099066 52.508814348592324 31.027693374728784 51.03985412078947 33.123251881926805 L 48.5 36.74650376385362 L 46.96332362808076 34.123251881926805 C 46.11815162352518 32.680463346867064 43.86815162352518 30.25831374818379 41.96332362808076 28.740697218186206 C 40.01075290171629 27.185043050247142 36.75514094095389 25.761630865179075 34.5 25.477597708369693 Z M 49 47 C 50.61904761904762 47 51 47.666666666666664 51 50.5 C 51 53.72222222222222 51.23809523809524 54 54 54 C 56.333333333333336 54 57 54.44444444444444 57 56 C 57 57.55555555555556 56.333333333333336 58 54 58 C 51.333333333333336 58 51 58.333333333333336 51 61 C 51 63.333333333333336 50.55555555555556 64 49 64 C 47.44444444444444 64 47 63.333333333333336 47 61 C 47 58.23809523809524 46.72222222222222 58 43.5 58 C 40.666666666666664 58 40 57.61904761904762 40 56 C 40 54.38095238095238 40.666666666666664 54 43.5 54 C 46.833333333333336 54 47 53.833333333333336 47 50.5 C 47 47.666666666666664 47.38095238095238 47 49 47 Z " fill="#000000"></path></svg>
