<?xml version="1.0" standalone="no"?>
<svg width="105" height="108" viewBox="0 0 105 108" xmlns="http://www.w3.org/2000/svg" xmlns:xlink="http://www.w3.org/1999/xlink" version="1.1"><!--?xml version="1.0" encoding="utf-8"?-->
<!-- Generator: Adobe Illustrator 15.0.2, SVG Export Plug-In . SVG Version: 6.00 Build 0)  -->

<svg version="1.1" id="Ebene_1" xmlns="http://www.w3.org/2000/svg" xmlns:xlink="http://www.w3.org/1999/xlink" x="0px" y="0px" width="100px" height="100px" viewBox="0 0 100 100" enable-background="new 0 0 100 100" xml:space="preserve">
<circle fill="#B2B2B2" cx="50" cy="50" r="50"></circle></svg><path d="M 57.5 32.62691958123958 L 55.5 31.225580411188552 L 40.5 37.45816035465728 C 32.25 40.88607932356508 22.35 45.05460757530168 18.5 46.721556469627515 L 11.5 49.75237264112903 L 13 50.20937109997032 L 14.5 50.66636955881161 L 14.182259239042597 57.583184779405805 L 13.864518478085195 64.5 L 24.682259239042597 67.80958489686043 C 30.63201665756917 69.62985659013366 37.075 71.01312024038664 39 70.88350411964484 C 40.925 70.75388799890302 44.975 71.46545784153352 48 72.46477043660148 L 53.5 74.28170242763414 L 60.5 73.6338310061021 C 64.35 73.27750172425948 72 72.48895835123638 77.5 71.88151239938412 L 87.5 70.77706521419817 L 87.5 58.68333431938082 L 87.5 46.589603424563464 L 89.68955933358679 46.04480171228173 L 91.87911866717357 45.5 L 83.18955933358679 38.4549886822862 L 74.5 31.409977364572395 L 68 33.266547796442396 C 64.425 34.28766153397089 61.05 34.87677484598249 60.5 34.5756884898015 C 59.95 34.27460213362051 58.6 33.39765612476764 57.5 32.62691958123958 Z M 57.564293697395115 49.25 L 59.12858739479024 49.5 L 59.12858739479024 61 L 59.12858739479024 72.5 L 57.564293697395115 72.75 L 56 73 L 56 61 L 56 49 L 57.564293697395115 49.25 Z M 64 50 L 67 50 L 67 61 L 67 72 L 64 72 L 61 72 L 61 61 L 61 50 L 64 50 Z M 37.502603805077065 51.25 L 40.00520761015413 51.5 L 40.002603805077065 56.25 L 40 61 L 37.5 61 L 35 61 L 35 56 L 35 51 L 37.502603805077065 51.25 Z M 73 51 L 76 51 L 76 56.5 L 76 62 L 73 62 L 70 62 L 70 56.5 L 70 51 L 73 51 Z M 79.5 51 L 82 51 L 82 56.5 L 82 62 L 79.5 62 L 77 62 L 77 56.5 L 77 51 L 79.5 51 Z M 15.549603174603174 54 C 15.882440476190478 54.275 15.93046679197995 55.175 15.656328320802004 56 L 15.157894736842106 57.5 L 15.051169590643276 55.5 C 14.99247076023392 54.4 15.216765873015873 53.725 15.549603174603174 54 Z M 17.549603174603174 54 C 17.882440476190474 54.275 17.93046679197995 55.175 17.656328320802004 56 L 17.157894736842106 57.5 L 17.051169590643276 55.5 C 16.992470760233918 54.4 17.216765873015873 53.725 17.549603174603174 54 Z " fill="#000000" transform="matrix(1 0 0 1 -4.86 6.48)"></path></svg>
