<?xml version="1.0" standalone="no"?>
<svg width="105" height="108" viewBox="0 0 105 108" xmlns="http://www.w3.org/2000/svg" xmlns:xlink="http://www.w3.org/1999/xlink" version="1.1"><!--?xml version="1.0" encoding="utf-8"?-->
<!-- Generator: Adobe Illustrator 15.0.2, SVG Export Plug-In . SVG Version: 6.00 Build 0)  -->

<svg version="1.1" id="Ebene_1" xmlns="http://www.w3.org/2000/svg" xmlns:xlink="http://www.w3.org/1999/xlink" x="0px" y="0px" width="100px" height="100px" viewBox="0 0 100 100" enable-background="new 0 0 100 100" xml:space="preserve">
<circle fill="#B2B2B2" cx="50" cy="50" r="50"></circle></svg><path d="M 48 11.08763946364624 C 37.825 11.126279863903966 28.9375 11.34736842105263 28.25 11.578947368421051 L 27 12 L 26.98899981410763 53.25 L 26.977999628215255 94.5 L 33.23899981410763 95.25536962447285 C 36.682549916348435 95.67082291793292 47.2625 96.00832291793293 56.75 96.00536962447285 C 66.2375 96.00241633101278 74.675 95.775 75.5 95.5 L 77 95 L 77.01275404949494 53.75 L 77.02550809898989 12.5 L 71.76275404949494 11.758692095225188 C 68.86823932227273 11.350972747599041 58.175 11.048999063388514 48 11.08763946364624 Z M 60.5 15 L 67 15 L 67 18 L 67 21 L 60.5 21 L 54 21 L 54 18 L 54 15 L 60.5 15 Z M 70 15 L 72 15 L 72 18 L 72 21 L 70 21 L 68 21 L 68 18 L 68 15 L 70 15 Z M 52 25 L 73 25 L 73 32 L 73 39 L 52 39 L 31 39 L 31 32 L 31 25 L 52 25 Z M 34 49 L 37 49 L 37 51.5 L 37 54 L 34 54 C 32.35 54 30.775 53.55 30.5 53 L 30 52 L 30.5 50.5 L 31 49 L 34 49 Z M 43.25 49.25 L 46.5 49.5 L 46.5 51.5 L 46.5 53.5 L 43.5 53.79340758538814 L 40.5 54.08681517077628 L 39.5 53.079748186564984 L 38.5 52.072681202353685 L 39.25 50.536340601176846 L 40 49 L 43.25 49.25 Z M 52.25 49.25 L 55.5 49.5 L 55.5 51.5 L 55.5 53.5 L 52.5 53.79340758538814 L 49.5 54.08681517077628 L 48.5 53.079748186564984 L 47.5 52.072681202353685 L 48.25 50.536340601176846 L 49 49 L 52.25 49.25 Z M 34.25 54.97222222222222 L 37 55 L 37 57.5 L 37 60 L 33.5 60 L 30 60 L 29.97222222222222 58.25 C 29.956944444444442 57.2875 30.294444444444444 56.15 30.72222222222222 55.72222222222222 C 31.15 55.294444444444444 32.7375 54.956944444444446 34.25 54.97222222222222 Z M 43.5 55.19236604864437 L 46.5 55.5 L 46.5 57.5 L 46.5 59.5 L 42.75 59.75 L 39 60 L 38.97222222222222 58.25 C 38.956944444444446 57.2875 39.294444444444444 56.13656472188997 39.72222222222222 55.69236604864437 C 40.15 55.248167375398765 41.85 55.02316737539877 43.5 55.19236604864437 Z M 52.25 55.25 L 55.5 55.5 L 55.5 57.5 L 55.5 59.5 L 52.5 59.79340758538814 L 49.5 60.08681517077628 L 48.5 59.079748186564984 L 47.5 58.072681202353685 L 48.25 56.536340601176846 L 49 55 L 52.25 55.25 Z M 61.25 55.25 L 64.5 55.5 L 64.5 57.5 L 64.5 59.5 L 61.5 59.79340758538814 L 58.5 60.08681517077628 L 57.5 59.079748186564984 L 56.5 58.072681202353685 L 57.25 56.536340601176846 L 58 55 L 61.25 55.25 Z M 70.25 55.25 L 73.5 55.5 L 73.75 57.75 L 74 60 L 70.5 60 L 67 60 L 66.5 59 L 66 58 L 66.5 56.5 L 67 55 L 70.25 55.25 Z M 33.5 62 L 37 62 L 37 65 L 37 68 L 33.5 68 L 30 68 L 30 65 L 30 62 L 33.5 62 Z M 42.5 62 L 46 62 L 46.25 64.5394863008539 C 46.3875 65.93620376632353 46.275 67.29870376632353 46 67.56726407863167 C 45.725 67.8358243909398 44.0375 68.04305555555555 42.25 68.02777777777777 L 39 68 L 39 65 L 39 62 L 42.5 62 Z M 52 62 L 56 62 L 55.75 64.75 L 55.5 67.5 L 52 67.5 L 48.5 67.5 L 48.25 64.75 L 48 62 L 52 62 Z M 61 62 L 65 62 L 64.75 64.75 L 64.5 67.5 L 61 67.5 L 57.5 67.5 L 57.25 64.75 L 57 62 L 61 62 Z M 70.5 62 L 74 62 L 74 65 L 74 68 L 70.5 68 L 67 68 L 66.39301119581566 66.25 L 65.78602239163133 64.5 L 66.39301119581566 63.25 L 67 62 L 70.5 62 Z M 33.5 70 L 37 70 L 37 73 L 37 76 L 33.75 75.75 L 30.5 75.5 L 30.25 72.75 L 30 70 L 33.5 70 Z M 42.5 70 L 46 70 L 46.25 72.59973033993543 L 46.5 75.19946067987088 L 45.5 75.65915592865619 C 44.95 75.91198831548812 43.375 75.97960966251716 42 75.80942558872076 L 39.5 75.5 L 39.25 72.75 L 39 70 L 42.5 70 Z M 52 70 L 56 70 L 55.75 72.75 L 55.5 75.5 L 52 75.5 L 48.5 75.5 L 48.25 72.75 L 48 70 L 52 70 Z M 61 70 L 65 70 L 64.75 72.75 L 64.5 75.5 L 61 75.5 L 57.5 75.5 L 57.25 72.75 L 57 70 L 61 70 Z M 70.5 70 L 74 70 L 73.75 72.75 L 73.5 75.5 L 70.25 75.75 L 67 76 L 66.39301119581566 74.25 L 65.78602239163133 72.5 L 66.39301119581566 71.25 L 67 70 L 70.5 70 Z M 34.25 76.97222222222223 L 37 77 L 37 80 L 37 83 L 33.5 83 L 30 83 L 29.97222222222222 80.75 C 29.956944444444442 79.5125 30.294444444444444 78.15 30.72222222222222 77.72222222222223 C 31.15 77.29444444444444 32.7375 76.95694444444445 34.25 76.97222222222223 Z M 43 76.94444444444444 C 44.375 76.94444444444444 45.725 77.1641756090602 46 77.43273592136833 C 46.275 77.70129623367647 46.3875 79.06379623367647 46.25 80.4605136991461 L 46 83 L 42.5 83 L 39 83 L 38.97222222222222 80.75 C 38.956944444444446 79.5125 39.294444444444444 78.15 39.72222222222222 77.72222222222223 C 40.15 77.29444444444444 41.625 76.94444444444444 43 76.94444444444444 Z M 52.5 77.19236604864437 L 55.5 77.5 L 55.75 80.25 L 56 83 L 52 83 L 48 83 L 47.97222222222222 80.75 C 47.956944444444446 79.5125 48.294444444444444 78.13656472188997 48.72222222222222 77.69236604864437 C 49.15 77.24816737539876 50.85 77.02316737539877 52.5 77.19236604864437 Z M 61.25 77.25 L 64.5 77.5 L 64.75 84.25 L 65 91 L 61.25 90.75 L 57.5 90.5 L 57.21231251984736 85 C 57.054084405763405 81.975 57.16658440576341 78.9375 57.46231251984736 78.25 L 58 77 L 61.25 77.25 Z M 70.25 77.25 L 73.5 77.5 L 73.75 80.25 L 74 83 L 70.5 83 L 67 83 L 66.39301119581566 81.25 L 65.78602239163133 79.5 L 66.39301119581566 78.25 L 67 77 L 70.25 77.25 Z M 33.5 85 L 37 85 L 37 88 L 37 91 L 33.5 91 L 30 91 L 30 88 L 30 85 L 33.5 85 Z M 42.7274586509458 85.25 L 46.4549173018916 85.5 L 46.4549173018916 88 L 46.4549173018916 90.5 L 42.7274586509458 90.75 L 39 91 L 39 88 L 39 85 L 42.7274586509458 85.25 Z M 52.5 85.19236604864437 L 55.5 85.5 L 55.5 88 L 55.5 90.5 L 51.75 90.75 L 48 91 L 47.97222222222222 88.75 C 47.956944444444446 87.5125 48.294444444444444 86.13656472188997 48.72222222222222 85.69236604864437 C 49.15 85.24816737539876 50.85 85.02316737539877 52.5 85.19236604864437 Z M 70.5 85 L 74 85 L 74 88 L 74 91 L 70.5 91 L 67 91 L 66.39301119581566 89.25 L 65.78602239163133 87.5 L 66.39301119581566 86.25 L 67 85 L 70.5 85 Z " fill="#000000" transform="matrix(1 0 0 1 -2.43 -3.24)"></path></svg>
