<?xml version="1.0" standalone="no"?>
<svg width="105" height="108" viewBox="0 0 105 108" xmlns="http://www.w3.org/2000/svg" xmlns:xlink="http://www.w3.org/1999/xlink" version="1.1"><!--?xml version="1.0" encoding="utf-8"?-->
<!-- Generator: Adobe Illustrator 15.0.2, SVG Export Plug-In . SVG Version: 6.00 Build 0)  -->

<svg version="1.1" id="Ebene_1" xmlns="http://www.w3.org/2000/svg" xmlns:xlink="http://www.w3.org/1999/xlink" x="0px" y="0px" width="100px" height="100px" viewBox="0 0 100 100" enable-background="new 0 0 100 100" xml:space="preserve">
<circle fill="#B2B2B2" cx="50" cy="50" r="50"></circle></svg><path d="M 53.91601498149265 15.195410865430679 C 52.31914116030031 14.99409157770305 50.73714562004204 15.756945957661008 49.25 17.44541086543068 L 47 20 L 49 23 C 50.1 24.65 51 26.45 51 27 C 51 27.55 51.45 27.775 52 27.5 C 52.55 27.225 53.18570655353971 27.7875 53.41268123008824 28.75 C 53.639655906636776 29.7125 54.113648821342075 32.3 54.465998818322234 34.5 C 54.81834881530239 36.7 55.33096002930163 39.4 55.60513484943164 40.5 L 56.1036345223953 42.5 L 53.801817261197655 39.59926507774319 C 52.535817767538944 38.003860870501946 50.4875 36.316360870501946 49.25 35.84926507774319 C 48.0125 35.382169284984435 47.225 34.55 47.5 34 L 48 33 L 47.5 31 C 47.225 29.9 46.1 28.775 45 28.5 C 43.9 28.225 42.30496359201855 28.5625 41.45547464893012 29.25 C 40.60598570584169 29.9375 39.930985705841685 31.7375 39.95547464893012 33.25 C 39.98686103258036 35.18850363813403 39.40982082773384 36.147544793066544 38 36.5 C 36.9 36.775 35.59018694125608 37.7875 35.08930431390239 38.75 C 34.5884216865487 39.7125 33.49444305614347 42.525 32.65824069077965 45 L 31.137872753754515 49.5 L 32.81893637687726 51.56292227692228 L 34.5 53.625844553844566 L 34 73.56292227692228 C 33.725 84.52831502461503 33.84500000000001 93.95 34.266666666666694 94.5 C 34.68833333333338 95.05 35.0652559486564 89.875 35.10427247849562 83 C 35.14328900833485 76.125 35.52566321606972 68.25 35.95399294012866 65.5 C 36.382322664187605 62.75 36.79290004886459 61.5125 36.866387128299735 62.75 C 36.93987420773488 63.9875 37.584113672893835 66.2375 38.298030384208516 67.75 C 39.09826672568936 69.44537629152973 39.5776411386304 74.2389665689577 39.548030384208516 80.2495988209366 C 39.521613672893835 85.61187817245174 39.8375 89.99937817245174 40.25 89.9995988209366 C 40.6625 89.99981946942147 40.775 90.45 40.5 91 C 40.225 91.55 40.7875 92.43767347735835 41.75 92.97260772746299 C 42.7125 93.50754197756763 43.8499999999999 93.62004197756762 44.27777777777756 93.22260772746299 C 44.70555555555521 92.82517347735835 45.04305555555521 91.7125 45.02777777777756 90.75 C 45.00701134660667 89.44171483622355 45.69412331406558 89.06310211946051 47.75 89.25 C 49.2625 89.3875 50.5 89.14608647120309 50.5 88.71352549156242 C 50.5 88.28096451192175 51.08229827986587 87.60596451192175 51.7939961774797 87.21352549156242 C 52.55362604142209 86.79465619232641 53.502416541270506 82.98985542297835 54.09154235307183 78 C 54.643494852033676 73.325 54.8482020439248 65.9 54.546447223941 61.5 C 54.23307546788003 56.93060910595449 53.35503414852394 52.5351411889503 52.49890104834887 51.25 C 51.674505471756994 50.0125 51.1125 48.992548311039066 51.25 48.98344069119793 C 51.3875 48.97433307135678 52.9625 49.424333071356784 54.75 49.98344069119793 C 56.904474792963434 50.657333431618355 58.13953047943417 51.758440527948395 58.41393302066295 53.25 C 58.641596182027584 54.4875 59.31502006599391 59.775 59.91043054058814 65 C 60.50584101518236 70.225 61.18745921586701 77.2 61.42513765322069 80.5 L 61.857280266591005 86.5 L 59.9286401332955 89.75 L 58 93 L 59.5 93.5 C 60.325 93.775 62.4625 93.11378149706536 64.25 92.03062554903413 C 66.0375 90.9474696010029 68.5125 90.0474696010029 69.75 90.03062554903413 L 72 90 L 71.98437905105887 84.75 C 71.97578752914124 81.8625 71.31681721713225 76.8 70.52000057992777 73.5 C 69.72318394272328 70.2 69.0552133697468 66.2625 69.0356215288689 64.75 C 69.01602968799101 63.2375 69.45 62.225 70 62.5 C 70.55 62.775 71 62.55 71 62 C 71 61.45 71.3375 61.05328947368422 71.75 61.11842105263159 L 72.5 61.23684210526317 L 73.25 61.11842105263159 C 73.6625 61.05328947368422 73.55 60.1 73 59 C 72.33096208928484 57.661924178569684 72.33718660491213 55.92437320982426 73.01880733724136 53.75 C 73.76915711515552 51.356380824833735 73.61449065848092 47.99673297356293 72.43184185457767 41 C 71.54866680362989 35.775 70.19020350187128 30.4875 69.41303451733631 29.25 C 68.63586553280133 28.0125 66.05522380876879 25.7625 63.678275130597314 24.25 C 61.301326452425826 22.7375 58.67603319409751 20.15 57.84429011208995 18.5 C 56.9022799083869 16.631253665063966 55.42098802876429 15.385144141726599 53.91601498149265 15.195410865430679 Z M 37.25 50.00200474720004 C 37.6625 50.000902136240015 37.95514398859222 50.5625 37.90031997464938 51.25 C 37.84549596070654 51.9375 37.43610286324711 53.625 36.990557535850634 55 L 36.180475122402505 57.5 L 36.34023756120125 53.75200474720004 C 36.42810690254056 51.690607358160065 36.8375 50.003107358160065 37.25 50.00200474720004 Z " fill="#000000" transform="matrix(1 0 0 1 -4.59 -7.56)"></path></svg>
