<?xml version="1.0" standalone="no"?>
<svg width="105" height="108" viewBox="0 0 105 108" xmlns="http://www.w3.org/2000/svg" xmlns:xlink="http://www.w3.org/1999/xlink" version="1.1"><!--?xml version="1.0" encoding="utf-8"?-->
<!-- Generator: Adobe Illustrator 15.0.2, SVG Export Plug-In . SVG Version: 6.00 Build 0)  -->

<svg version="1.1" id="Ebene_1" xmlns="http://www.w3.org/2000/svg" xmlns:xlink="http://www.w3.org/1999/xlink" x="0px" y="0px" width="100px" height="100px" viewBox="0 0 100 100" enable-background="new 0 0 100 100" xml:space="preserve">
<circle fill="#B2B2B2" cx="50" cy="50" r="50"></circle></svg><path d="M 37.88067463567463 13.25 C 36.84630358605359 13.1125 35.57337097051228 13.5625 35.05193549002728 14.25 C 34.53050000954229 14.9375 33.94100993509131 16.4 33.74195754680289 17.5 C 33.542905158514465 18.6 31.335839701627314 21.525 28.837367642609227 24 C 25.65528021004969 27.15219310424469 23.773438757407668 30.14731953925649 22.554355911805253 34 L 20.814020651943263 39.5 L 23.742867162215557 45.5 C 25.35373274286532 48.8 27.2162448030841 53.75 27.88178285159062 56.5 C 28.547320900097144 59.25 29.543355242539057 65.55 30.095192501461533 70.5 C 30.64702976038401 75.45 31.188863053478002 80.2875 31.29926648611484 81.25 C 31.409669918751675 82.2125 31.725 83 32 83 C 32.275 83 32.55116175248375 83.7875 32.613692783297225 84.75 C 32.67622381411069 85.7125 32.33872381411069 87.0625 31.863692783297225 87.75 C 31.33075716535712 88.5213037961044 31.478696203895595 89.22598517042039 32.25 89.59010591838137 C 32.9375 89.91466417349113 34.175 89.98974050898431 35 89.75694221947734 C 35.825 89.52414392997035 36.54395851721161 88.69609626669873 36.597685593803575 87.91683630109596 C 36.65141267039554 87.13757633549318 36.81715432518723 85.6 36.96600038222956 84.5 C 37.167971788913775 83.0073938015741 37.39688615730131 83.23612544134616 37.86831478842599 85.40159414270518 C 38.30124178069813 87.39020872791242 39.207957041316334 88.41281334314712 40.75 88.65159414270518 C 41.9875 88.84321736421732 43.225 88.55 43.5 88 C 43.775 87.45 43.4375 86.57575295654364 42.75 86.0572287923192 C 41.828708341110044 85.36237499241685 41.715016447569866 83.5873499504226 42.31765664526401 79.3072287923192 C 42.767367800159214 76.11325295654363 42.93729446731267 67.2 42.69527146116058 59.5 C 42.38008033659855 49.47214480675245 42.52773835787861 46.49303620168811 43.21569868586967 49 C 43.74395666561176 50.925 44.249029998458305 54.13591335149183 44.338083869973104 56.13536300331518 C 44.444684784875164 58.52878126306564 45.26053904243703 60.407739728389984 46.72621458142855 61.63536300331518 C 48.493514054678805 63.115621020459876 49.077278791358395 64.94299016997124 49.55807944218405 70.5 C 49.891187095813876 74.35 50.42322895669434 78.175 50.74039468858507 79 C 51.057560420475795 79.825 51.4800716189383 81.85 51.679308462946175 83.5 C 51.87854530695405 85.15 52.25720688443075 87.5125 52.52077863511661 88.75 C 52.86273842832329 90.35554096936443 53.716065589595075 91 55.5 91 C 56.875 91 57.775 90.55 57.5 90 C 57.225 89.45 57.45 89 58 89 C 58.58439072561427 89 59.007549447096636 85.5712234863177 59.018164770523455 80.75 C 59.028155394311355 76.2125 59.048161045454414 71.6 59.06262177306358 70.5 C 59.07708250067275 69.4 58.843908353937195 67.4875 58.54445700254013 66.25 C 58.13501670920443 64.55796434666588 58.37197623111059 64.12399207703686 59.5 64.5 C 60.325 64.775 61.23967173769402 64.4375 61.53260386154227 63.75 C 61.825535985390516 63.0625 62.16616329493335 61.825 62.289553438304125 61 C 62.412943581674895 60.175 63.50901577515775 58.15 64.72526942382159 56.5 L 66.93663969411946 53.5 L 66.96788269135197 56 C 66.98506633982986 57.375 67.83437074132218 61.425 68.85522580577934 65 C 69.8760808702365 68.575 71.00127759030501 74.0875 71.3556629614871 77.25 C 71.75865092115502 80.84622469234193 71.62543038127686 83 71 83 C 70.45 83 70.225 83.45 70.5 84 C 70.775 84.55 70.325 85.45 69.5 86 C 68.675 86.55 68.225 87.45 68.5 88 C 68.775 88.55 69.9 89 71 89 C 72.1 89 73 89.45 73 90 C 73 90.55 73.9 91 75 91 C 76.33333333333333 91 77.16666666666667 90.16666666666667 77.5 88.5 C 77.775 87.125 77.50503675901973 84.7625 76.90008168671054 83.25 C 76.29512661440133 81.7375 75.62012661440131 77.9125 75.40008168671054 74.75 C 75.13072011832651 70.87871803520277 75.5301215273198 67.77474910747645 76.62248869972653 65.25 C 77.51485748457613 63.1875 79.16534616413973 60.825 80.29024132097899 60 L 82.33550524250492 58.5 L 81.63422056054793 49.5 C 81.24851398547159 44.55 80.71058920108527 38.7 80.43883215080055 36.5 C 80.11731170039059 33.89714207907092 78.84297264363721 31.27750068081295 76.79041564157681 29 C 75.05554361178848 27.075 72.32363953017132 24.825 70.71951768242758 24 C 68.52109800892543 22.869352578677063 67.39628362544116 22.772627336708855 66.15146625235583 23.607183294964436 C 65.24315981356013 24.216134107194875 64.35419688005373 25.566134107194877 64.17599306678608 26.607183294964436 C 63.997789253518434 27.648232482733995 64.75579426776687 29.625 65.86044865400484 31 C 67.19548652300385 32.66176597200258 67.53488487481394 33.83529361119897 66.8726908813364 34.5 C 66.32476972013079 35.05 65.83240641343609 38.425 65.77855019979263 42 C 65.71756443732993 46.04826269903627 65.01482753584129 49.82016623898047 63.91546729205997 52 C 62.94462790645048 53.925 61.21648619889673 56.2875 60.075152386384985 57.25 C 58.485858891547416 58.59026957933959 57.824401248288396 58.70733541381399 57.25 57.75 C 56.8375 57.0625 56.05 55.15 55.5 53.5 C 54.74444444444445 51.233333333333334 53.888888888888886 50.5 52 50.5 C 49.853591293969416 50.5 49.5 50.95309740003735 49.5 53.70353899943973 C 49.5 55.46548544913158 48.87126963867402 57.49048544913158 48.1028214192756 58.20353899943973 C 46.94768779421442 59.27540319488937 46.801525317848466 59.240142428102075 47.25911418016135 58 C 47.563523418046934 57.175 47.23279391694394 52 46.524159733265805 46.5 C 45.815525549587676 41 44.687095059315965 34.475 44.016536421550896 32 C 43.34597778378582 29.525 42.51845615870659 27.05 42.17759947693038 26.5 C 41.836742795154166 25.95 41.43234154302729 24.7125 41.27893002775954 23.75 C 41.125518512491794 22.7875 41.45 22 42 22 C 42.55 22 42.775 21.55 42.5 21 C 42.225 20.45 42.448668798261195 19.4375 42.99704177391378 18.75 C 43.70044955303027 17.868131509731853 43.370802404030066 16.910989584429036 41.8777164095884 15.5 C 40.71371448355688 14.4 38.915045685295674 13.3875 37.88067463567463 13.25 Z M 36.14286903862906 59 C 36.74967902740024 60.375 37.41577394366055 66.1125 37.62307996365197 71.75 C 37.85908510511668 78.16794669089869 37.626141140575484 82 37 82 C 36.45 82 35.97451917446374 81.8875 35.943375943252754 81.75 C 35.91223271204177 81.6125 35.69613779578146 75.875 35.463165018229844 69 C 35.13525143262883 59.32330762117661 35.28877251590383 57.06466152423532 36.14286903862906 59 Z M 55.33463569385367 80 C 55.54924088102875 80.275 55.98881040608451 82.525 56.311456860644256 85 C 56.69956982451305 87.97718934146042 56.5821101264792 88.99239644715347 55.96435616352987 88 C 55.45080432555721 87.175 55.01123480050145 84.925 54.987534996739285 83 C 54.96383519297712 81.075 55.120030506678596 79.725 55.33463569385367 80 Z " fill="#000000"></path></svg>
