<?xml version="1.0" standalone="no"?>
<svg width="105" height="108" viewBox="0 0 105 108" xmlns="http://www.w3.org/2000/svg" xmlns:xlink="http://www.w3.org/1999/xlink" version="1.1"><!--?xml version="1.0" encoding="utf-8"?-->
<!-- Generator: Adobe Illustrator 15.0.2, SVG Export Plug-In . SVG Version: 6.00 Build 0)  -->

<svg version="1.1" id="Ebene_1" xmlns="http://www.w3.org/2000/svg" xmlns:xlink="http://www.w3.org/1999/xlink" x="0px" y="0px" width="100px" height="100px" viewBox="0 0 100 100" enable-background="new 0 0 100 100" xml:space="preserve">
<circle fill="#B2B2B2" cx="50" cy="50" r="50"></circle></svg><path d="M 44 17.418886459225174 L 35.5 16.69588747340247 L 25 29.036311504295725 L 14.5 41.376735535188985 L 15.75 41.68836776759449 L 17 42 L 17.033684743103212 60.25 L 17.067369486206424 78.5 L 27.130593568151518 85.5 C 32.66536681322132 89.35 37.712708678824875 92.41240241518818 38.3469088250483 92.30533870041819 C 38.98110897127174 92.1982749856482 49.85 90.94122098628483 62.5 89.5118853684996 C 75.15 88.08254975071436 86.5125 86.70764733552619 87.75 86.45654666808142 L 90 86 L 90.01666666666662 64.25 L 90.03333333333325 42.5 L 88.76666666666662 41.23333333333329 L 87.5 39.96666666666658 L 85 39.98333333333329 L 82.5 40 L 82.5 35.04660739739228 L 82.5 30.09321479478455 L 84.75 29.046607397392275 C 85.9875 28.470973328826524 87 27.55 87 27 L 87 26 L 84.75 25.483845515240922 C 83.5125 25.199960548623427 75.75 23.4318847737592 67.5 21.55478823776486 L 52.5 18.14188544504788 L 44 17.418886459225174 Z M 50.5 30.5 C 51.325 30.775 53.125 31 54.5 31 L 57 31 L 56.99752490741042 36.25 L 56.99504981482085 41.5 L 52.99752490741042 41.25 L 49 41 L 49 35.5 L 49 30 L 50.5 30.5 Z M 62.00247509258958 31.75 L 66 32 L 65.99752490741042 37.25 L 65.99504981482085 42.5 L 61.99752490741042 42.25 L 58 42 L 58.00247509258958 36.75 L 58.00495018517915 31.5 L 62.00247509258958 31.75 Z M 24.75 41.12278396971959 C 24.8875 41.05525278637381 24.955143988592223 42.4625 24.90031997464938 44.25 L 24.800639949298763 47.5 L 24 45 L 23.199360050701237 42.5 L 22.963497971517352 45.5 L 22.727635892333467 48.5 L 22.239212767047647 46 L 21.75078964176183 43.5 L 20.945680083491293 45.5 L 20.140570525220756 47.5 L 20.06624221538306 45.5 L 19.991913905545363 43.5 L 22.24595695277268 42.37278396971959 C 23.48568062874771 41.75281515306536 24.6125 41.19031515306536 24.75 41.12278396971959 Z M 44.75 59.0046003225989 L 49.5 59.009200645197794 L 49.5 71.75460032259889 L 49.5 84.5 L 44.75 84.75 L 40 85 L 40 72 L 40 59 L 44.75 59.0046003225989 Z M 70.5 61 L 74 61 L 74 68 L 74 75 L 70.75 74.99336001543153 L 67.5 74.98672003086307 L 67.25 67.99336001543153 L 67 61 L 70.5 61 Z M 78 61 L 81 61 L 81 68 L 81 75 L 78 75 L 75 75 L 75 68 L 75 61 L 78 61 Z " fill="#000000" transform="matrix(1 0 0 1 -4.86 -3.78)"></path></svg>
