<?xml version="1.0" standalone="no"?>
<svg width="105" height="108" viewBox="0 0 105 108" xmlns="http://www.w3.org/2000/svg" xmlns:xlink="http://www.w3.org/1999/xlink" version="1.1"><!--?xml version="1.0" encoding="utf-8"?-->
<!-- Generator: Adobe Illustrator 15.0.2, SVG Export Plug-In . SVG Version: 6.00 Build 0)  -->

<svg version="1.1" id="Ebene_1" xmlns="http://www.w3.org/2000/svg" xmlns:xlink="http://www.w3.org/1999/xlink" x="0px" y="0px" width="100px" height="100px" viewBox="0 0 100 100" enable-background="new 0 0 100 100" xml:space="preserve">
<circle fill="#B2B2B2" cx="50" cy="50" r="50"></circle></svg><path d="M 67.75 22.02196200049091 C 67.0625 22.034041100760913 64.7 22.849352832570318 62.5 23.83376584895626 C 59.46281049981014 25.19278806587336 58.078770406333064 26.631717504421193 56.75 29.811803848465352 C 55.56379243130907 32.65070097652971 55.241625327703886 34.9386047193185 55.75 36.913409559247754 C 56.27672105484632 38.95948176757619 56.05344210969265 40.31241086972423 55 41.45793491031763 L 53.5 43.08905070213976 L 55.75 43.04452535106988 C 56.9875 43.02003640798144 59.6875 43.97284313345947 61.75 45.16187362990994 C 64.64005494568259 46.82798925019314 66.41727472460524 47.17984469273555 69.5 46.69622504330501 C 71.92722544338349 46.31544057075169 74.6034489162732 44.973913561873395 76.30637529805169 43.28435141339507 C 78.28576402194638 41.32049654520954 79.25962903245258 39.17393374425363 79.61118192312583 36 C 79.9911774776972 32.56927664280994 79.62135619910764 30.727744646859485 78.05480662507415 28.25 C 76.92466298128336 26.4625 74.425 24.325 72.5 23.5 C 70.575 22.675 68.4375 22.00988290022091 67.75 22.02196200049091 Z M 68.25 24.98667045621088 L 70.5 24.973340912421758 L 69.66463663806014 31.23667045621088 C 69.20518678899323 34.68150170529489 68.53920919379485 37.95 68.1846864265082 38.5 C 67.83016365922153 39.05 67.0113834968666 36.575 66.36517495460834 33 C 65.71896641235008 29.424999999999997 65.37244400754847 26.1625 65.5951251661603 25.75 C 65.81780632477214 25.3375 67.0125 24.994001705294895 68.25 24.98667045621088 Z M 43.25 38.21024277580044 C 41.7375 37.77587630249068 39.6 37.54739101724275 38.5 37.70249769747171 C 37.4 37.85760437770068 35.6 38.93523953154092 34.5 40.09724248378337 C 33.314265127635686 41.34981286765987 32.5 43.580886004371116 32.5 45.57720978433431 C 32.5 47.628155525014485 33.281821911625784 49.70627781167949 34.5 50.89331120273428 C 35.6 51.9651879197937 37.4 52.929507427990934 38.5 53.03624344317258 C 39.6 53.142979458354226 41.2875 53.1784894171238 42.25 53.11515446266051 C 43.2125 53.051819508197234 44.9 52.1 46 51 C 47.111111111111114 49.888888888888886 48 47.666666666666664 48 46 C 48 44.35 47.55 42.1 47 41 C 46.45 39.9 44.7625 38.6446092491102 43.25 38.21024277580044 Z M 67.5 40 C 68.325 40 69.3375 40.69135327052958 69.75 41.536340601176846 C 70.17020061034563 42.3971022789279 69.96858773430333 43.60636670766056 69.29151019748639 44.286340601176846 C 68.3440543335517 45.23784942801406 67.75005401215972 45.22999985391274 66.54151019748639 44.25 C 65.69367958886887 43.5625 65.225 42.325 65.5 41.5 C 65.775 40.675 66.675 40 67.5 40 Z M 64 49 C 63.45 49 62.98621744574518 49.5625 62.96937210165596 50.25 C 62.95252675756674 50.9375 61.602526757566736 54.3125 59.96937210165596 57.75 C 58.336217445745184 61.1875 56.55 64 56 64 C 55.45 64 52.525 61.75 49.5 59 C 45.813278124118064 55.64843465828915 43.4230478695988 54.180787902110055 42.25 54.54836235455547 L 40.5 55.096724709110944 L 41.30085456376125 60.79836235455547 C 41.741324573829935 63.93426305954996 41.793478184868654 67.85 41.416751477180625 69.5 L 40.73179382683876 72.5 L 39.35863255417311 70.5 C 38.32372641607452 68.99266628953265 38.172010592540055 66.85025340508246 38.742735640753736 61.80278271532438 L 39.5 55.105565430648774 L 37.5 54.389937300563204 L 35.5 53.67430917047764 L 27.78514840410617 62.08715458523882 C 23.541980026364563 66.71421956335747 20.06384337109283 70.725 20.05595583683565 71 C 20.04806830257847 71.275 22.957251520730694 73.4125 26.52080743272948 75.75 L 33 80 L 40.5 80 L 48 80 L 49.25 74.48151561749492 C 49.9375 71.44634920711712 50.6125 68.97134920711713 50.75 68.98151561749492 C 50.8875 68.99168202787271 52.35 69.9 54 71 L 57 73 L 59.413043662278284 68.75 C 60.74021767653134 66.4125 62.716439491463916 62.475 63.804647695461796 60 C 65.147994988983 56.94471651725251 65.49696027223608 54.93816579884625 64.89160403318351 53.75 C 64.40122181493258 52.7875 64.225 51.325 64.5 50.5 C 64.775 49.675 64.55 49 64 49 Z M 30.2582173822731 71.28978235462512 C 30.675236942523302 72.5054020595813 30.900236942523303 73.57569306972422 30.7582173822731 73.66820682160937 C 30.616197822022894 73.76072057349454 29.6 73.18040565041338 28.5 72.37861810365123 L 26.5 70.92082256408372 L 28 70.00019363666698 C 29.116001763533664 69.31524463229553 29.694102758433996 69.64537782793741 30.2582173822731 71.28978235462512 Z " fill="#000000"></path></svg>
