<?xml version="1.0" standalone="no"?>
<svg width="105" height="108" viewBox="0 0 105 108" xmlns="http://www.w3.org/2000/svg" xmlns:xlink="http://www.w3.org/1999/xlink" version="1.1"><!--?xml version="1.0" standalone="no"?-->
<svg width="105" height="88" viewBox="0 0 105 88" xmlns="http://www.w3.org/2000/svg" xmlns:xlink="http://www.w3.org/1999/xlink" version="1.1"><!--?xml version="1.0" encoding="utf-8"?-->
<!-- Generator: Adobe Illustrator 15.0.2, SVG Export Plug-In . SVG Version: 6.00 Build 0)  -->

<svg version="1.1" id="Ebene_1" xmlns="http://www.w3.org/2000/svg" xmlns:xlink="http://www.w3.org/1999/xlink" x="0px" y="0px" width="100px" height="100px" viewBox="0 0 100 100" enable-background="new 0 0 100 100" xml:space="preserve">
<circle fill="#B2B2B2" cx="50" cy="50" r="40

" transform="matrix(1 0 0 1 0 -3.4125)"></circle></svg></svg><path d="M 87.5 36.131221100492404 C 86.95 36.16383349480817 83.8 37.92004679814369 80.5 40.03391733012688 C 77.2 42.14778786211008 73.9375 43.904921680461015 73.25 43.93865914868452 C 72.5625 43.972396616908036 69.8625 45.08847876359699 67.25 46.41884169688219 L 62.5 48.83768339376438 L 55 48.23005955320845 L 47.5 47.62243571265252 L 44.75 49.31121785632626 C 43.2375 50.24004803534682 40.425 51 38.5 51 C 36.575 51 29.9375 48.971444828553906 23.75 46.492099619008684 C 17.5625 44.01275440946346 12.275 42.20796538126426 12 42.48145733412157 C 11.725 42.75494928697888 12.4 43.27163743920086 13.5 43.6296532279482 C 14.6 43.987669016695534 20 46.07388079305865 25.5 48.26567939764401 L 35.5 52.2507677696174 L 39.76032696796448 51.8753838848087 L 44.02065393592896 51.5 L 43.36889770443321 53 C 43.01043177711055 53.825 42.55578464152653 55.7375 42.35857073646873 57.25 L 42 60 L 45 60 C 47.166666666666664 60 48.138888888888886 59.44444444444444 48.5 58 C 48.775 56.9 49.675 56 50.5 56 C 51.325 56 54.1375 58.041599292474125 56.75 60.53688731660917 C 59.3625 63.03217534074421 61.166917303210525 65.39467534074421 60.75981622935673 65.78688731660917 C 60.352715155502935 66.17909929247412 59.45271515550293 66.16885821904039 58.75981622935673 65.7641293756453 C 58.06691730321053 65.3594005322502 56.467171154676336 64.2344005322502 55.20482478816964 63.2641293756453 C 53.94247842166294 62.29385821904038 52.92997842166294 61.8375 52.95482478816964 62.25 C 52.97967115467634 62.6625 54.0125 63.908981107496295 55.25 65.01995801665844 C 56.4875 66.13093492582057 57.1625 67.03093492582057 56.75 67.01995801665844 C 56.3375 67.0089811074963 54.65 66.325 53 65.5 C 51.054601362105075 64.52730068105254 50.26365034052627 64.42248048727569 50.75 65.20182042937739 L 51.5 66.40364085875477 L 47.75 65.70182042937739 C 45.6875 65.31581919321982 43.325 64.325 42.5 63.5 C 41.675 62.675 40.4375 61.97996359201856 39.75 61.95547464893012 C 39.0625 61.930985705841685 37.9375 62.60598570584169 37.25 63.45547464893012 L 36 65 L 33.75 63.61780482791213 C 32.5125 62.8575974832638 28.125 61.47978299942188 24 60.55599486381896 C 19.875 59.63220672821604 15.375 58.67301244239886 14 58.424452006447424 C 12.275078171642452 58.112635772528385 11.96504690298547 58.23638959099803 13 58.82361760998714 C 13.825 59.29171912788541 18.325 60.52308307753184 23 61.55998194253476 L 31.5 63.44525260617643 L 38 67.720614980295 L 44.5 71.99597735441355 L 49.75 71.99798867720678 C 53.037053314754885 71.99924797725525 55.17377800713849 71.53263174160831 55.46477805247325 70.75 C 55.72040598133354 70.0625 57.31326360139863 68.825 59.00446165261789 68 C 60.69565970383715 67.175 62.05169059473207 66.05 62.01786363238439 65.5 C 61.98403667003671 64.95 63.282069489711674 63.825 64.90238100943989 63 C 66.5226925291681 62.175 72.4950115146602 59.14076409314001 78.17420097720013 56.25725354031113 C 83.85339043974005 53.37374298748226 87.6 51.020667022362375 86.5 51.02819584004473 C 85.4 51.03572465772708 79.4375 53.73246056458707 73.25 57.02094229973359 L 62 63 L 58.75 60.47160133991821 C 56.9625 59.08098207687323 54.825 57.0095214984127 54 55.868355610005935 C 52.936900082358505 54.39784244396893 51.84464987646224 53.9692139462295 50.25 54.39675427008772 C 49.0125 54.72853942153947 47.55 55.9 47 57 C 46.45 58.1 45.325 59 44.5 59 C 43.675 59 43.01803283711423 58.2125 43.04007297136495 57.25 C 43.06211310561568 56.2875 44.74961310561568 53.98474399962131 46.79007297136495 52.13276444360291 L 50.5 48.76552888720582 L 56.5 49.46205128697782 L 62.5 50.15857368674982 L 68.5 47.41425632361395 C 71.8 45.904881773889215 76.42657162044311 43.73170269437051 78.78127026765137 42.58496948023904 C 81.1359689148596 41.438236266107566 84.28596891485961 39.50368331357252 85.78127026765137 38.28596291905005 C 87.27657162044311 37.06824252452757 88.05 36.098608706176634 87.5 36.131221100492404 Z M 39 63 C 39.55 63 40 63.45 40 64 C 40 64.55 40.540050323547106 64.6625 41.20011183010469 64.25 C 41.99302730087645 63.75447400970379 42.21357144261974 64.00894801940758 41.85011183010469 65 C 41.54755032354711 65.825 40.894999999999996 66.6051848415337 40.4 66.7337440922971 C 39.905 66.8623033430605 38.825 66.57511487255425 38 66.09554749117208 C 37.175 65.61598010978993 36.8375 64.72329526825624 37.25 64.111803398875 C 37.6625 63.50031152949374 38.45 63 39 63 Z M 44.25 65.95547464893012 C 44.6625 65.97996359201855 45 66.45 45 67 C 45 67.56571658532543 45.71699366806617 67.67428743899407 46.65098100419851 67.25 L 48.301962008397034 66.5 L 47.90098100419851 68.41713370037172 C 47.68044145188933 69.47155723557617 46.9375 70.48405723557617 46.25 70.66713370037172 C 45.5625 70.85021016516727 45 70.325 45 69.5 C 45 68.41158078692865 44.38262881960702 68.18477640764708 42.75 68.6734148441158 L 40.5 69.34682968823158 L 42 67.6288894930459 C 42.825 66.6840223856938 43.8375 65.93098570584169 44.25 65.95547464893012 Z M 52.75 66.88318509703608 C 53.9875 67.49743329366623 54.76428571428571 68.3375 54.47619047619048 68.75 C 54.188095238095244 69.1625 53.17559523809524 68.65993329366623 52.22619047619048 67.63318509703608 L 50.5 65.76637019407215 L 52.75 66.88318509703608 Z M 49.75 68.03180337187047 C 50.1625 68.04929522639921 51.4 68.73193768275176 52.5 69.54878660820944 L 54.5 71.03396647267797 L 51.75 71.01698323633899 C 49.979770327261775 71.00605078946393 49 70.46557982149358 49 69.5 C 49 68.675 49.3375 68.01431151734171 49.75 68.03180337187047 Z " fill="#000000"></path></svg>

