<?xml version="1.0" standalone="no"?>
<svg width="105" height="108" viewBox="0 0 105 108" xmlns="http://www.w3.org/2000/svg" xmlns:xlink="http://www.w3.org/1999/xlink" version="1.1"><!--?xml version="1.0" encoding="utf-8"?-->
<!-- Generator: Adobe Illustrator 15.0.2, SVG Export Plug-In . SVG Version: 6.00 Build 0)  -->

<svg version="1.1" id="Ebene_1" xmlns="http://www.w3.org/2000/svg" xmlns:xlink="http://www.w3.org/1999/xlink" x="0px" y="0px" width="100px" height="100px" viewBox="0 0 100 100" enable-background="new 0 0 100 100" xml:space="preserve">
<circle fill="#B2B2B2" cx="50" cy="50" r="50"></circle></svg><path d="M 51.75 11.640410880967151 L 50.5 11.280821761934302 L 48.25 11.640410880967151 L 46 12 L 46 52 L 46 92 L 48.25 92.36132812851761 L 50.5 92.72265625703521 L 53.25 92.36132812851761 L 56 92 L 56 52 C 56 17.111111111111114 55.80833333333334 12 54.5 12 C 53.675 12 52.4375 11.838184896435218 51.75 11.640410880967151 Z M 41.75 12.120320035596478 C 41.6125 12.186496055174542 39.58363671118199 12.973996055174542 37.24141491373775 13.870320035596478 L 32.9828298274755 15.5 L 32.98916298008647 52 L 32.99549613269744 88.5 L 37.4617281820726 90 L 41.927960231447756 91.5 L 41.96398011572388 51.75 C 41.983791052075745 29.887499999999996 41.8875 12.054144016018416 41.75 12.120320035596478 Z M 64.5382718179274 14 L 60.07203976855226 12.5 L 60.07203976855225 52 L 60.072039768552244 91.5 L 64.53827181792741 90 L 69.00450386730256 88.5 L 69.00450386730255 52 L 69.00450386730253 15.5 L 64.5382718179274 14 Z M 28.75 23.389104933913586 L 28.5 17.778209867827176 L 23.882830727166617 22.139104933913586 C 21.343387627108257 24.537597220261116 18.150808487308037 28.3 16.788210416499464 30.5 C 15.42561234569089 32.7 13.510103975738975 36.975 12.53152514993965 40 C 11.552946324140326 43.025 10.752290921213607 48.425 10.752290921213609 52 C 10.75229092121361 55.575 11.546583837030482 60.975 12.51738628969555 64 C 13.488188742360617 67.025 15.906423285087552 71.93116031035133 17.891240829088744 74.90257846744741 C 19.876058373089936 77.8739966245435 23.1875 81.58649662454349 25.25 83.15257846744741 L 29 86 L 29 80.5 C 29 76.23082541177389 28.45550564983537 74.27269407486088 26.566901936490403 71.75 C 25.228698001560122 69.9625 23.213580901781036 66.475 22.08886393698132 64 C 20.610716461070854 60.74725720570075 20.043924000981832 57.42123799049875 20.04392400098183 52 C 20.043924000981825 46.57876200950116 20.610716461070826 43.2527427942993 22.08886393698134 40 C 23.21358090178107 37.525 25.22869800156016 34.0375 26.566901936490428 32.25 C 28.572534652600257 29.57098495119644 28.956078080677198 28.014234878314557 28.75 23.389104933913586 Z M 76.75 20.84742153255257 L 73 18 L 73 23.5 C 73 27.76917458822608 73.54449435016464 29.727305925139135 75.43309806350958 32.25 C 76.77130199843984 34.0375 78.78641909821893 37.525 79.91113606301866 40 C 81.38928353892918 43.2527427942993 81.95607599901818 46.57876200950116 81.95607599901817 52 C 81.95607599901817 57.42123799049876 81.38928353892915 60.74725720570074 79.91113606301869 64 C 78.78641909821896 66.475 76.77130199843988 69.9625 75.43309806350959 71.75 C 73.54449435016463 74.27269407486088 73 76.23082541177389 73 80.5 L 73 86 L 76.75 83.15257846744743 C 78.8125 81.58649662454351 82.12394162691007 77.87399662454351 84.10875917091126 74.90257846744743 C 86.09357671491244 71.93116031035134 88.51181125763938 67.025 89.48261371030445 64 C 90.45341616296952 60.975 91.24770907878639 55.575 91.24770907878639 52 C 91.24770907878639 48.425 90.45341616296952 43.025 89.48261371030443 40 C 88.51181125763937 36.975 86.09357671491243 32.068839689648655 84.10875917091124 29.09742153255257 C 82.12394162691007 26.126003375456484 78.8125 22.413503375456482 76.75 20.84742153255257 Z " fill="#000000" transform="matrix(1 0 0 1 -0.54 -1.35)"></path></svg>
