<?xml version="1.0" standalone="no"?>
<svg width="105" height="108" viewBox="0 0 105 108" xmlns="http://www.w3.org/2000/svg" xmlns:xlink="http://www.w3.org/1999/xlink" version="1.1"><!--?xml version="1.0" encoding="utf-8"?-->
<!-- Generator: Adobe Illustrator 15.0.2, SVG Export Plug-In . SVG Version: 6.00 Build 0)  -->

<svg version="1.1" id="Ebene_1" xmlns="http://www.w3.org/2000/svg" xmlns:xlink="http://www.w3.org/1999/xlink" x="0px" y="0px" width="100px" height="100px" viewBox="0 0 100 100" enable-background="new 0 0 100 100" xml:space="preserve">
<circle fill="#B2B2B2" cx="50" cy="50" r="50"></circle></svg><path d="M 52 15 L 50 14 L 48.37978198879795 15.75 L 46.7595639775959 17.5 L 47.39122879808544 21 C 47.73864444935469 22.925 48.681367361245385 25.175 49.48616860228698 26 C 50.29096984332858 26.825 50.95081264863425 28.175 50.95248594741068 29 L 50.95552830882237 30.5 L 49.22776415441119 28.246367291226868 L 47.5 25.99273458245374 L 44.320488305321774 27.246367291226868 L 41.14097661064355 28.5 L 39.429777935542255 36 L 37.71857926044096 43.5 L 40.34610382950446 45.5 L 42.973628398567946 47.5 L 42.98681419928397 51.75 C 42.99406638967779 54.0875 43.51714224994457 56.3375 44.149204999876815 56.75 L 45.29840999975364 57.5 L 44.71441975105958 73 C 44.393225114277854 81.525 43.880809881263346 89.175 43.57571923324956 90 C 43.27062858523577 90.825 43.41597041770979 92.175 43.8987010831918 93 C 44.38143174867382 93.825 45.27670473174376 94.1625 45.88819660112501 93.75 C 46.49968847050626 93.3375 47.4061547749475 91.3125 47.90256616655001 89.25 C 48.39897755815252 87.1875 49.41147755815251 80.4316179052216 50.15256616655001 74.23692867827023 C 50.89365477494751 68.04223945131886 51.8375 62.97973945131886 52.25 62.98692867827023 C 52.6625 62.99411790522161 53.06541530952445 66.4875 53.14536735449877 70.75 C 53.225319399473086 75.0125 53.2046754642896 80.075 53.0994919429799 82 L 52.90824917696227 85.5 L 55.204124588481136 88.73434109055884 C 56.46685606481651 90.5132286903662 58.175 92.20551771856553 59 92.49498337544625 C 59.825 92.78444903232696 60.725 92.77148343894034 61 92.46617094569821 C 61.275 92.16085845245608 60.71901564617988 90.46856942425676 59.76447921373306 88.70552866081081 L 58.02895842746612 85.5 L 58.41588360911309 74 C 58.62869245901892 67.675 59.55313268599974 57.55 60.470195224626025 51.5 L 62.137581658491996 40.5 L 61.496456493915254 35.5 C 61.143837653398045 32.75 60.66288178023735 29.7125 60.427665664669256 28.75 L 60 27 L 56.42462654523747 26.25 L 52.84925309047494 25.5 L 53.30272020882108 24 C 53.552127123911454 23.175 53.8643346522388 22.05 53.99651471621519 21.5 C 54.12869478019157 20.95 54.18355263157895 19.4875 54.118421052631575 18.25 C 54.05328947368421 17.0125 53.1 15.55 52 15 Z M 52.66228070175438 26.5 L 53.166666666666664 27.5 L 52.66228070175438 29 C 52.38486842105263 29.825 52.1578947368421 29.375 52.1578947368421 28 C 52.1578947368421 26.625 52.38486842105263 25.95 52.66228070175438 26.5 Z M 54.75 39.078947368421055 L 57 39 L 57.56895820269476 43.25 L 58.13791640538951 47.5 L 57.1052988038716 48.5 L 56.072681202353685 49.5 L 54.286340601176846 48.69818547107593 L 52.5 47.89637094215186 L 54 46.963498245592994 L 55.5 46.03062554903413 L 53.25 46.015312774517064 C 52.0125 46.006890748532676 49.65 45.325 48 44.5 C 46.35 43.675 45 42.55 45 42 C 45 41.45 46.2375 40.735638030996384 47.75 40.412528957769744 C 49.2625 40.089419884543105 50.95 39.67494620033258 51.5 39.49147632619079 C 52.05 39.308006452049014 53.5125 39.12236842105263 54.75 39.078947368421055 Z " fill="#000000" transform="matrix(1 0 0 1 -1.89 -4.05)"></path></svg>
