<?xml version="1.0" standalone="no"?>
<svg width="81" height="83" viewBox="0 0 81 83" xmlns="http://www.w3.org/2000/svg" xmlns:xlink="http://www.w3.org/1999/xlink" version="1.1"><!--?xml version="1.0" standalone="no"?-->
<svg width="105" height="88" viewBox="0 0 105 88" xmlns="http://www.w3.org/2000/svg" xmlns:xlink="http://www.w3.org/1999/xlink" version="1.1"><!--?xml version="1.0" encoding="utf-8"?-->
<!-- Generator: Adobe Illustrator 15.0.2, SVG Export Plug-In . SVG Version: 6.00 Build 0)  -->

<svg version="1.1" id="Ebene_1" xmlns="http://www.w3.org/2000/svg" xmlns:xlink="http://www.w3.org/1999/xlink" x="0px" y="0px" width="100px" height="100px" viewBox="0 0 100 100" enable-background="new 0 0 100 100" xml:space="preserve">
<circle fill="#B2B2B2" cx="50" cy="50" r="40

" transform="matrix(1 0 0 1 -9.3375 -6.11)"></circle></svg></svg><path d="M 48.68113895668816 8.5 C 48.43458010197125 7.95 47.96954034370951 8.175 47.647717271662074 9 C 47.32589419961464 9.825 43.86238033581692 19.724999999999998 39.95101979655604 31 C 36.039659257295156 42.275000000000006 32.5380777642815 51.86287204519811 32.169727589859036 52.30638232266246 C 31.80137741543657 52.74989260012681 30.2625 51.06239260012681 28.75 48.55638232266246 L 26 44 L 26.02777777777779 31.25 C 26.043055555555572 24.2375 25.705555555555573 18.18523884908593 25.27777777777779 17.800530775746513 C 24.850000000000005 17.415822702407095 23.9375 17.303322702407094 23.25 17.550530775746513 C 22.333924406135974 17.879929004971807 22 21.606383586268528 22 31.5 L 22 45 L 15.014834974758077 57.25 C 9.418213142797702 67.06488872399835 8.275201727531622 69.75733169628246 9.264834974758077 70.79452535106988 C 10.170659143965727 71.74388217925681 14.499556933330844 72.08217407068116 25.5 72.06326047747277 L 40.5 72.03747025280579 L 46.75 76.0187351264029 L 53 80 L 62.25 74.34875588159053 C 67.3375 71.24057161646533 72.98333170713647 67.52807161646534 74.79629268252549 66.09875588159053 C 77.71514729112518 63.79756745198954 78.08728467648594 62.95610689831888 78.04629268252549 58.75 L 78 54 L 73.5 51 C 71.0188208363712 49.345880557580806 69.00130009696444 47.21490300807786 69.00289794727425 46.25 C 69.00449181827508 45.2875 68.49365549925788 37.3 67.867706127236 28.5 C 67.24175675521414 19.7 66.22795267894074 11.917463592018553 65.61480817996176 11.205474648930117 C 65.00166368098279 10.493485705841683 62.925 9.931394891794215 61 9.956383951046853 C 59.075 9.98137301029949 56.0375 9.551409418280938 54.25 9.000909302116735 C 52.4625 8.45040918595253 50.99915728125629 8.3375 50.99812729168063 8.75 C 50.997097302104976 9.1625 52.45959730210498 10.096034281517369 54.24812729168063 10.824520625594154 C 56.03665728125628 11.553006969670937 58.625 12.601903326662198 60 13.155401418908067 L 62.5 14.161761586627826 L 61.714820163657095 22.830880793313913 C 61.2829712536685 27.59889635699126 60.6565815232298 34.2 60.32284298490443 37.5 C 59.83529082404154 42.320906026977894 59.40004397299222 43.42751484048601 58.10802282124734 43.131148180692335 C 57.223610269561306 42.92827968007312 51.55 45.07749849745601 45.5 47.90718999709877 C 39.45 50.736881496741525 34.3875 53.040364815429974 34.25 53.02604181640643 C 34.1125 53.01171881738289 34.505299300530716 51.5375 35.1228873345127 49.75 C 35.74047536849468 47.9625 39.14459661977007 38.175 42.687601226235785 28 C 46.23060583270149 17.825 48.92769781140506 9.05 48.68113895668816 8.5 Z M 63.25 11.955474648930117 C 64.67237590392185 11.99166424120181 65.08968398667325 13.170086057421956 65.47904588996026 18.25 C 65.7425211294384 21.6875 66.3050211294384 29.561946078554076 66.72904588996026 35.7487690634535 C 67.15307065048212 41.93559204835293 67.1625 46.99809204835293 66.75 46.9987690634535 C 66.3375 46.99944607855407 64.86225442914035 46.4375 63.47167650920079 45.75 C 61.3951235769746 44.72335480418994 61.03022026766281 43.96394846994415 61.429503571421264 41.5 C 61.696886375582096 39.85 62.41147118700311 33.1 63.01746981902352 26.5 C 63.90797584425155 16.801397633671264 63.868118118484304 14.251731868360025 62.809642756803036 13.205474648930117 C 61.73212987586911 12.140399663230724 61.810181750451235 11.918841270051272 63.25 11.955474648930117 Z " fill="#000000" transform="matrix(1 0 0 1 -4.3575 -2.075)"></path></svg>
