<?xml version="1.0" encoding="UTF-8" standalone="no"?>
<svg
   xmlns:dc="http://purl.org/dc/elements/1.1/"
   xmlns:cc="http://creativecommons.org/ns#"
   xmlns:rdf="http://www.w3.org/1999/02/22-rdf-syntax-ns#"
   xmlns:svg="http://www.w3.org/2000/svg"
   xmlns="http://www.w3.org/2000/svg"
   xmlns:sodipodi="http://sodipodi.sourceforge.net/DTD/sodipodi-0.dtd"
   xmlns:inkscape="http://www.inkscape.org/namespaces/inkscape"
   width="105"
   height="108"
   viewBox="0 0 105 108"
   version="1.1"
   id="svg2"
   inkscape:version="0.91 r13725"
   sodipodi:docname="study.svg">
  <metadata
     id="metadata13">
    <rdf:RDF>
      <cc:Work
         rdf:about="">
        <dc:format>image/svg+xml</dc:format>
        <dc:type
           rdf:resource="http://purl.org/dc/dcmitype/StillImage" />
      </cc:Work>
    </rdf:RDF>
  </metadata>
  <defs
     id="defs11" />
  <sodipodi:namedview
     pagecolor="#ffffff"
     bordercolor="#666666"
     borderopacity="1"
     objecttolerance="10"
     gridtolerance="10"
     guidetolerance="10"
     inkscape:pageopacity="0"
     inkscape:pageshadow="2"
     inkscape:window-width="1366"
     inkscape:window-height="715"
     id="namedview9"
     showgrid="false"
     inkscape:zoom="8.3129568"
     inkscape:cx="35.2601"
     inkscape:cy="63.005887"
     inkscape:window-x="-8"
     inkscape:window-y="22"
     inkscape:window-maximized="1"
     inkscape:current-layer="svg2" />
  <!--?xml version="1.0" encoding="utf-8"?-->
  <!-- Generator: Adobe Illustrator 15.0.2, SVG Export Plug-In . SVG Version: 6.00 Build 0)  -->
  <svg
     version="1.1"
     id="Ebene_1"
     x="0px"
     y="0px"
     width="100px"
     height="100px"
     viewBox="0 0 100 100"
     enable-background="new 0 0 100 100"
     xml:space="preserve">
<circle
   fill="#B2B2B2"
   cx="50"
   cy="50"
   r="50"
   id="circle5" /></svg>  <path
     d="M 61 16 L 36 16 L 36 30 L 36 44 L 37.75 43.96740526445389 L 39.5 43.934810528907775 L 37.5 45.996136429524626 C 35.98506061974505 47.55752832071662 35.32181607954424 47.74733126443322 34.765312774517064 46.77873116507074 C 34.36123480050145 46.07542902428183 34.02373480050145 44.4875 34.015312774517064 43.25 C 34.006890748532676 42.0125 33.325 40.325 32.5 39.5 C 31.674999999999997 38.675 31.450000000000003 38 32 38 C 32.55 38 33.225 37.325 33.5 36.5 C 33.775 35.675 33.785403995237445 34.4375 33.52311998941654 33.75 C 33.26083598359564 33.0625 32.02333598359564 31.967268531644695 30.773119989416543 31.316152292543762 C 28.96351435744964 30.373704252502645 28.041200064617186 30.424682023100736 26.25 31.566152292543762 C 25.0125 32.354768531644694 23.979963592018553 33.7875 23.95547464893012 34.75 C 23.930985705841685 35.7125 24.493485705841685 37.019381829665384 25.20547464893012 37.654181843700854 C 25.917463592018553 38.28898185773632 27.625 39.01519993351135 29 39.26799978986759 L 31.5 39.72763589233347 L 28.75 39.86381794616673 C 26.61803448282579 39.96939447083236 25.662890282095024 40.78658934177828 24.5 43.5 C 23.583333333333332 45.638888888888886 23 50.111111111111114 23 55 C 23 60.12577252382556 23.449098043152254 63.40928155596891 24.25 64.13917651782707 C 25.248574641834338 65.04921874444727 25.198289570201208 67.08858165308462 24 74.2781841914964 L 22.5 83.27801534733864 L 20.25 84.13900767366931 C 19.0125 84.6125534531512 18 85.45 18 86 C 18 86.55 19.08045920002134 86.8875 20.401020444491866 86.75 C 21.72158168896239 86.6125 23.184081688962394 86.1211948162731 23.651020444491866 85.65821070282912 C 24.11795920002134 85.19522658938514 24.54516137662491 84.07022658938514 24.600358614722026 83.15821070282912 C 24.65555585281914 82.2461948162731 25.250066916353422 78.125 25.921494311464876 74 C 26.592921706576327 69.875 27.53523027857479 65.825 28.015513360350347 65 C 28.495796442125904 64.175 29.148057655003104 63.725 29.464982722299673 64 C 29.781907789596247 64.275 29.305861639710663 68.775 28.4071023892206 74 C 27.508343138730538 79.225 26.711570862319057 84.175 26.636497330528424 85 C 26.542738884807047 86.03033274011743 27.439334519765147 86.5 29.5 86.5 C 31.15 86.5 32.5 86.05861918719405 32.5 85.51915374932014 C 32.5 84.97968831144621 31.825000000000003 84.52968831144621 31 84.51915374932014 C 30.175 84.50861918719406 29.525599589421784 84.05 29.556887976492852 83.5 C 29.58817636356392 82.95 30.006141306044917 79.125 30.485698959783953 75 C 31.1433781997558 69.34285566348152 31.534906890712527 68.1142852211605 32.07913095794048 70 L 32.80063994929876 72.5 L 32.90031997464938 68.25 C 32.95514398859222 65.9125 33.45 63.775 34 63.5 C 34.55 63.225 34.8875 60.32204660898625 34.75 57.048992464413885 L 34.5 51.09798492882777 L 38 47.53086811124838 L 41.5 43.963751293668984 L 63.75 43.981875646834496 L 86 44 L 86 30 L 86 16 L 61 16 Z M 61.25 18 L 85 18 L 84.75 30.041697365333253 L 84.5 42.083394730666505 L 64.24994642284005 42.29169736533325 C 48.60545192145721 42.45262481227804 43.99990503097009 42.215706982068696 43.99994642284005 41.25 C 43.99997589027802 40.5625 43.325 40 42.5 40 C 41.675 40 40.775 40.675 40.5 41.5 C 40.225 42.325 39.4375 42.77002533870547 38.75 42.48894519712328 C 37.8479265912011 42.120138038632035 37.5 38.640872126620984 37.5 29.98894519712328 L 37.5 18 L 61.25 18 Z M 71.75 19.96212121212121 C 70.34820426487093 19.99246311114998 70 20.895382395382395 70 24.5 L 70 29 L 65 29 L 60 29 L 60 31 C 60 32.1 61.125 34.125 62.5 35.5 C 64.42592592592592 37.425925925925924 66.03333333333333 38 69.5 38 C 72.96666666666667 38 74.57407407407408 37.425925925925924 76.5 35.5 C 78.25510204081633 33.744897959183675 79.0112863327149 31.882653061224488 79.03787878787878 29.25 C 79.0661736934563 26.448804347826083 78.37038383838384 24.794626262626263 76.28787878787878 22.71212121212121 C 74.75454545454545 21.17878787878788 72.7125 19.94128787878788 71.75 19.96212121212121 Z M 47.5 23.34281033534503 C 43.1 23.346442594764255 41.525 23.521713663180996 44 23.732301598493343 C 46.475 23.94288953380569 50.075 23.93991768518996 52 23.725697490458387 C 53.925 23.511477295726817 51.9 23.339178075925805 47.5 23.34281033534503 Z M 47.5 25.34281033534503 C 43.1 25.346442594764255 41.525 25.521713663180996 44 25.732301598493343 C 46.475 25.94288953380569 50.075 25.93991768518996 52 25.725697490458387 C 53.925 25.511477295726817 51.9 25.339178075925805 47.5 25.34281033534503 Z M 55.75 28.02984162883572 C 55.6125 28.046254524695367 53.67445535221464 29.733754524695367 51.443234116032535 31.77984162883572 C 49.21201287985043 33.825928732976074 46.51201287985043 36.625 45.443234116032535 38 C 44.37445535221464 39.375 46.303167073033556 37.8 49.7292601622968 34.5 C 53.15535325156003 31.2 55.96785325156003 28.3875 55.9792601622968 28.25 C 55.990667073033556 28.1125 55.8875 28.013428732976074 55.75 28.02984162883572 Z M 28.233016763661013 48.30548852997498 L 29.5 50.11097705994995 L 32.25 49.05548852997498 C 33.7625 48.47496983848874 35 48.225 35 48.5 C 35 48.775 33.7625 49.453397286036015 32.25 50.00754952452448 C 30.23649825881228 50.74525960523826 29.15330339379952 50.678305218073504 28.20547464893012 49.75754952452448 C 27.493485705841685 49.06589728603601 26.92334324948914 48.05 26.93849141259113 47.5 C 26.95363957569312 46.95 27.536175983674568 47.31246983848874 28.233016763661013 48.30548852997498 Z M 26.5 51.265580626928895 C 27.858863176015777 52.465171876039165 29.461705235976336 52.861200063019524 31.5 52.50097429693936 C 33.15 52.20937147063422 34.120490863710145 52.314860188516214 33.65664636380032 52.73539367001046 C 33.192801863890494 53.155927151504706 31.842801863890493 53.62757355764517 30.65664636380032 53.783496794767046 C 29.3929729131337 53.949609968864316 27.67188749335783 53.12149746222215 26.5 51.783496794767046 L 24.5 49.5 L 26.5 51.265580626928895 Z "
     fill="#000000"
     id="path7" />
  <path
     style="fill:none;fill-rule:evenodd;stroke:#000000;stroke-width:1px;stroke-linecap:butt;stroke-linejoin:miter;stroke-opacity:1"
     d="M 43.426185,40.394693 55.696187,28.365279"
     id="path3345"
     inkscape:connector-curvature="0" />
  <path
     style="fill:none;fill-rule:evenodd;stroke:#000000;stroke-width:1px;stroke-linecap:butt;stroke-linejoin:miter;stroke-opacity:1"
     d="m 42.945008,23.433219 10.104708,0"
     id="path3347"
     inkscape:connector-curvature="0" />
  <path
     style="fill:none;fill-rule:evenodd;stroke:#000000;stroke-width:1px;stroke-linecap:butt;stroke-linejoin:miter;stroke-opacity:1"
     d="m 43.305891,25.478219 9.382943,0.240589"
     id="path3349"
     inkscape:connector-curvature="0" />
  <ellipse
     style="fill:#000000;fill-rule:evenodd;stroke:#000000;stroke-width:1.04506516px;stroke-linecap:butt;stroke-linejoin:miter;stroke-opacity:1;fill-opacity:1"
     id="path3351"
     cx="28.990889"
     cy="35.402489"
     rx="4.6689391"
     ry="4.4884977" />
</svg>
