<?xml version="1.0" standalone="no"?>
<svg width="105" height="108" viewBox="0 0 105 108" xmlns="http://www.w3.org/2000/svg" xmlns:xlink="http://www.w3.org/1999/xlink" version="1.1"><!--?xml version="1.0" encoding="utf-8"?-->
<!-- Generator: Adobe Illustrator 15.0.2, SVG Export Plug-In . SVG Version: 6.00 Build 0)  -->

<svg version="1.1" id="Ebene_1" xmlns="http://www.w3.org/2000/svg" xmlns:xlink="http://www.w3.org/1999/xlink" x="0px" y="0px" width="100px" height="100px" viewBox="0 0 100 100" enable-background="new 0 0 100 100" xml:space="preserve">
<circle fill="#B2B2B2" cx="50" cy="50" r="50"></circle></svg><path d="M 52.5 13.239265744537299 C 50.3 13.063944397649653 48.15 13.275887235947453 47.72222222222222 13.710249829643518 C 47.294444444444444 14.144612423339582 46.956944444444446 15.7375 46.97222222222222 17.25 C 46.9875 18.7625 47.50704559242933 21.0125 48.12676798317628 22.25 C 48.74649037392323 23.4875 48.963295752219004 25.4 48.608557712722444 26.5 L 47.96357945909232 28.5 L 45.981789729546165 26.25 C 44.89180537829577 25.0125 43.1 24 42 24 C 40.9 24 38.7625 25.099752803461925 37.25 26.443895118804278 C 35.7375 27.788037434146627 32.25 29.344081993276546 29.5 29.90177191687076 C 26.75 30.459461840464975 23.825 31.569191787278616 23 32.36783846534552 L 21.5 33.81992333455807 L 25.732815664928097 36.159961667279035 C 28.060864280638555 37.446982750275566 30.163405573903955 38.95 30.405129649962326 39.5 C 30.6468537260207 40.05 30.164252999610902 43.2 29.332683591273884 46.5 C 28.50111418293687 49.8 27.680450562841376 53.85 27.508986657728336 55.5 C 27.3375227526153 57.15 26.927856429807456 59.7375 26.59861705148868 61.25 C 26.226742112217288 62.95836443842207 26.47347070980815 64.28408242588489 27.25 64.75 C 27.9375 65.1625 29.2875 67.1875 30.25 69.25 C 31.2125 71.3125 32 73.9 32 75 C 32 76.1 32.7875 79.97631562207047 33.75 83.61403471571217 L 35.5 90.22806943142432 L 32 93.0882426468598 L 28.5 95.94841586229528 L 30.25 96.47420793114765 C 31.2125 96.76339356901644 32.69503640798145 96.4375 33.54452535106988 95.75 L 35.08905070213976 94.5 L 35.04452535106988 96.25 L 35 98 L 37.5 98 C 38.875 98 39.987500000000104 97.4375 39.97222222222244 96.75 C 39.95694444444479 96.0625 40.29444444444479 95.84061896986479 40.72222222222244 96.25693104414398 C 41.1500000000001 96.67324311842319 41.9825620891802 95.99824311842319 42.57236019817822 94.75693104414398 L 43.64472039635643 92.5 L 42.6944462933826 89.5 C 42.171795536746984 87.85 42.02673344756679 85.2625 42.37208609520438 83.75 C 42.71743874284197 82.2375 42.775 79.875 42.5 78.5 C 42.225 77.125 41.55 76.225 41 76.5 C 40.45 76.775 39.844372275519824 76.2125 39.65416061226627 75.25 C 39.46394894901272 74.2875 39.63262401761294 71.475 40.028994098044535 69 C 40.47800198445193 66.19632087858837 40.829250528237104 65.44240048810465 40.96078622946522 67 L 41.17190548737392 69.5 L 42.1081140747914 66.5 C 42.623028797871015 64.85 42.97145025638388 61.925 42.88238398259776 60 C 42.79331770881164 58.075 42.78334510981465 55.0375 42.86022265149332 53.25 C 42.93710019317199 51.4625 43.3375 49.999411073214915 43.75 49.99869127381092 C 44.1625 49.997971474406924 44.3875 55.17297147440692 44.25 61.49869127381092 L 44 73 L 46.707321443338316 73.25 L 49.414642886676624 73.5 L 49.786248037416996 77.5 C 49.9906308703242 79.7 51.03330382917688 83.525 52.1032990570896 86 L 54.04874492602183 90.5 L 53.40556031494982 93.5 C 53.019975723094184 95.29847862597164 53.21046794035047 96.80038034350709 53.881187851938904 97.25 C 54.522248238242916 97.67973728034794 56.38780511849226 96.7024270690715 58.25 94.96130820579538 L 61.5 91.92261641159074 L 60 87.99802222797678 L 58.5 84.07342804436281 L 60.198075813904204 80.7867140221814 C 61.13201751155152 78.97902130998163 62.123647689891165 76.375 62.40169843243676 75 L 62.90724523706511 72.5 L 65.20362261853256 72.25094079647997 C 66.46663017833966 72.11395823454394 67.58949520988158 71.88895823454395 67.69887824418129 71.75094079647997 C 67.808261278481 71.61292335841598 67.44746713656446 67.225 66.89711348436674 62 C 66.34675983216903 56.775 65.88487044279742 48 65.8706926190965 42.5 C 65.85651479539558 37 65.4366996858448 31.825 64.93777015342812 31 C 64.43884062101142 30.175 64.01710098942279 29.95 64.00057097212003 30.5 C 63.984040954817274 31.05 63.40093140738024 30.375 62.7047719778155 29 C 61.921653394462545 27.453245037873657 60.306757850071044 26.302193604818886 58.46951378021253 25.981228888370747 L 55.5 25.462457776741495 L 55.746128301730934 21.981228888370747 C 55.88149886768295 20.066552999766834 56.10649886768295 17.3880571617022 56.246128301730934 16.029015914893783 L 56.5 13.558031829787563 L 52.5 13.239265744537299 Z M 34 31.042333495922513 C 34.275 31.01600260393942 34.6125 31.895705838818316 34.75 32.99722957343117 L 35 35 L 33.5 34.5 C 32.675 34.225 30.9875 33.96345150379833 29.75 33.91878111955184 L 27.5 33.83756223910368 L 30.5 32.46388504204318 C 32.15 31.708362583659905 33.725 31.068664387905603 34 31.042333495922513 Z M 61 39 C 61.44035197211432 40.375 61.83860521217386 42.175 61.88500720013232 43 L 61.96937445096587 44.5 L 61 43 C 60.46684405196877 42.175 60.068590811909225 40.375 60.11499279986768 39 L 60.19936005070124 36.5 L 61 39 Z M 55.25 66.00245246963179 C 55.6625 66.0011036113343 56 67.575 56 69.5 C 56 71.425 56.428809907824274 73.1125 56.95291090627616 73.25 C 57.52406863686824 73.39984552250118 57.36805960642771 75.70339850497415 56.563489898008285 79 L 55.22115798346425 84.5 L 54.97712506160061 80 C 54.842906954575604 77.525 54.68064640829615 73.36360361133431 54.616546069868484 70.75245246963179 C 54.55244573144082 68.14130132792927 54.8375 66.00380132792928 55.25 66.00245246963179 Z M 38 83.5 C 38.47268621112858 84.6 38.85942947477924 86.4 38.85942947477925 87.5 L 38.85942947477925 89.5 L 38 87.5 C 37.52731378887142 86.4 37.14057052522076 84.6 37.14057052522076 83.5 L 37.14057052522076 81.5 L 38 83.5 Z " fill="#000000" transform="matrix(1 0 0 1 2.97 -6.48)"></path></svg>
