<?xml version="1.0" encoding="UTF-8" standalone="no"?>
<svg
   xmlns:dc="http://purl.org/dc/elements/1.1/"
   xmlns:cc="http://creativecommons.org/ns#"
   xmlns:rdf="http://www.w3.org/1999/02/22-rdf-syntax-ns#"
   xmlns:svg="http://www.w3.org/2000/svg"
   xmlns="http://www.w3.org/2000/svg"
   xmlns:sodipodi="http://sodipodi.sourceforge.net/DTD/sodipodi-0.dtd"
   xmlns:inkscape="http://www.inkscape.org/namespaces/inkscape"
   width="105"
   height="108"
   viewBox="0 0 105 108"
   version="1.1"
   id="svg2"
   inkscape:version="0.91 r13725"
   sodipodi:docname="suiro.svg">
  <metadata
     id="metadata13">
    <rdf:RDF>
      <cc:Work
         rdf:about="">
        <dc:format>image/svg+xml</dc:format>
        <dc:type
           rdf:resource="http://purl.org/dc/dcmitype/StillImage" />
      </cc:Work>
    </rdf:RDF>
  </metadata>
  <defs
     id="defs11" />
  <sodipodi:namedview
     pagecolor="#ffffff"
     bordercolor="#666666"
     borderopacity="1"
     objecttolerance="10"
     gridtolerance="10"
     guidetolerance="10"
     inkscape:pageopacity="0"
     inkscape:pageshadow="2"
     inkscape:window-width="1920"
     inkscape:window-height="1017"
     id="namedview9"
     showgrid="false"
     showguides="false"
     inkscape:zoom="4.3703704"
     inkscape:cx="125.01817"
     inkscape:cy="41.70728"
     inkscape:window-x="-8"
     inkscape:window-y="-8"
     inkscape:window-maximized="1"
     inkscape:current-layer="svg2" />
  <!--?xml version="1.0" encoding="utf-8"?-->
  <!-- Generator: Adobe Illustrator 15.0.2, SVG Export Plug-In . SVG Version: 6.00 Build 0)  -->
  <svg
     version="1.1"
     id="Ebene_1"
     x="0px"
     y="0px"
     width="100px"
     height="100px"
     viewBox="0 0 100 100"
     enable-background="new 0 0 100 100"
     xml:space="preserve">
<circle
   fill="#B2B2B2"
   cx="50"
   cy="50"
   r="50"
   id="circle5" /></svg>  <path
     d="M 54 15.409254298634432 C 48.001391197893696 15.1775140819548 42.47287878016681 15.554346010286967 39 16.431677420423597 C 35.975 17.195864045888204 29 19.509721023958292 23.5 21.573581816134904 C 18 23.637442608311517 13.05 25.763913116768244 12.5 26.299071834927634 C 11.846594264625972 26.934845972710832 12.193188529251945 27.06778497304686 13.5 26.68262982738169 C 14.6 26.35842800507203 21.349999999999998 24.04751248503394 28.5 21.54726200507482 C 36.046319809498584 18.90842428121134 44.22684009525071 16.751946170156106 48 16.4068404063634 C 52.146922842786694 16.02754904019364 57.034083092383554 16.348798687861418 61.5 17.294241273538304 C 65.35 18.109293149816665 73.45 20.62053678183193 79.5 22.87478267801668 C 85.55 25.129028574201424 90.725 26.773937448373655 91 26.53013573173274 C 91.275 26.286334015091832 89.7 25.363868362067258 87.5 24.480212058344797 C 85.3 23.59655575462234 79 21.276671096997642 73.5 19.324912819178802 C 65.36285134982926 16.43732241266732 61.730291217662206 15.70789343662067 54 15.409254298634432 Z M 51.25 23.25 C 49.64505499684526 23.071672777427253 48.42067416701056 23.93174610655427 46.97926823200949 26.25 C 45.8678657596147 28.0375 44.731636406860446 30.4 44.4543141147778 31.5 C 44.11297881508559 32.85390785515912 42.7467303235224 33.738729217824165 40.22504588276831 34.23899433611891 C 38.176270647245744 34.6454412209843 33.575 35.014569589158974 30 35.05927959872928 C 26.424999999999997 35.10398960829959 22.6 35.521732858358284 21.5 35.98759793219305 C 20.369877627277116 36.46622024365747 24.641092787209846 36.544385158331075 31.320266727177355 36.16731266958267 L 43.14053345435472 35.5 L 42.570266727177355 37.25 C 42.256620027229815 38.2125 40.7625 39.20961035626794 39.25 39.46580079170652 C 37.7375 39.721991227145104 34.7 40.2112846736054 32.5 40.553119561618274 C 30.3 40.89495444963116 27.6 41.42387585205818 26.5 41.72850045590055 L 24.5 42.28236337197759 L 27 43.31461845598443 L 29.5 44.34687353999128 L 27.25 44.67343676999564 C 26.0125 44.853046546498035 25 45.45 25 46 C 25 46.55 25.7875 46.78658837146379 26.75 46.525751936586204 C 27.7125 46.264915501708614 31.762500000000003 45.364915501708616 35.75 44.525751936586204 C 39.7375 43.68658837146379 45.8125 42.995400388101565 49.25 42.989778640225694 C 52.6875 42.98415689234982 59.55 43.67308152310837 64.5 44.52072226413358 C 69.45 45.36836300515879 74.4 46.29626311740762 75.5 46.58272251357543 L 77.5 47.10355777933509 L 75.78895474515892 45.801778889667546 C 74.84787985499632 45.085800500350395 74.06037985499633 44.1625 74.03895474515892 43.75 C 74.01752963532151 43.3375 74.7875 42.98631609134467 75.75 42.96959131409926 C 77.22486205322556 42.943963533000144 77.26416747419334 42.80429046827458 76 42.081208355168044 C 75.175 41.60932250500128 72.025 40.89619574000678 69 40.49648221073583 C 65.975 40.09676868146487 62.7125 39.37154101298392 61.75 38.884865169667044 C 60.7875 38.39818932635017 59.9981525325031 37.4375 59.99589451667356 36.75 C 59.99270544595757 35.779020926886865 63.1735440124678 35.6400783955157 74.24589451667356 36.127544307691394 C 82.0856525325031 36.472693676921665 87.375 36.40504968832945 86 35.97722433304202 C 84.625 35.549398977754585 79.9 35.121148643619115 75.5 35.02555692385208 C 71.1 34.92996520408505 65.56128413015323 34.54760919267727 63.19174251145161 34.175876898501464 L 58.883485022903216 33.5 L 56.19174251145161 28.5 C 54.331874151532986 25.0452335206542 52.80464491570561 23.42273832396729 51.25 23.25 Z M 51.28612605453063 35.5 C 56.87577557937282 35.5 58.5340797081828 35.8328198852908 58.760006982773696 37 C 58.99825172506734 38.23081432351489 57.638714690065484 38.5 51.18417464603503 38.5 C 44.68432286489542 38.5 43.38613369000425 38.23945480520326 43.710293717791956 37 C 44.01307689984048 35.84228147287008 45.74178826679758 35.5 51.28612605453063 35.5 Z M 43.5 40 C 44.325 40 45 40.45 45 41 C 45 41.55 44.325 42 43.5 42 C 42.675 42 42 41.55 42 41 C 42 40.45 42.675 40 43.5 40 Z M 48.5 40 C 49.875 40 51 40.3375 51 40.75 C 51 41.1625 49.875 41.5 48.5 41.5 C 47.125 41.5 46 41.1625 46 40.75 C 46 40.3375 47.125 40 48.5 40 Z M 56 40 C 58.33442982028422 40 60.155291137488426 40.52049068116118 60.37294408696708 41.25 C 60.63883121627741 42.141176246661445 59.49059520559404 42.42823524933229 56.37294408696708 42.25 C 53.96782483913519 42.1125 52 41.55 52 41 C 52 40.45 53.8 40 56 40 Z M 36 41.78365720925497 C 36.275 41.96383031419657 35.825 42.529323872875814 35 43.04030956187551 C 34.175 43.55129525087521 32.7125 43.97626519949855 31.75 43.984687225482936 C 30.7875 43.993109251467324 30 43.55 30 43 C 30 42.45 31.237499999999997 41.877615692788076 32.75 41.728034872862395 C 34.2625 41.57845405293671 35.725 41.60348410431337 36 41.78365720925497 Z M 39.25 41.015312774517064 C 41.069438282499966 41.02769528481379 41.21295885499998 41.2161257839268 40 42 C 39.175 42.53315594803123 38.1625 42.97626519949855 37.75 42.984687225482936 C 37.3375 42.993109251467324 37 42.55 37 42 C 37 41.45 38.0125 41.006890748532676 39.25 41.015312774517064 Z M 63.5 41 C 64.325 41 65 41.45 65 42 C 65 42.55 64.325 43 63.5 43 C 62.675 43 62 42.55 62 42 C 62 41.45 62.675 41 63.5 41 Z M 67.5 41.5 C 68.325 41.775 69.9 42 71 42 C 72.1 42 72.99748390394986 42.5625 72.99440867544413 43.25 C 72.99079253341328 44.05842696455896 71.75438803417838 44.41168539291179 69.49440867544413 44.25 C 67.16604540838269 44.08342222652553 66 43.49946664084683 66 42.5 C 66 41.611111111111114 66.61111111111111 41.2037037037037 67.5 41.5 Z M 54 47.56019514359946 C 50.425 47.28948037491258 44.35 47.66924932877235 40.5 48.40412615217673 C 36.65 49.13900297558111 30.674603228200134 50.58620601909768 27.221340507111407 51.62013291554689 C 23.768077786022683 52.6540598119961 20.955577786022683 53.8375 20.971340507111407 54.25 C 20.987103228200134 54.6625 22.0125 54.61589169596378 23.25 54.146425991030625 C 24.4875 53.67696028609747 26.7375 53.00196028609747 28.25 52.646425991030625 C 30.548808663676873 52.10605883880986 31 52.32813915368955 31 54 C 31 55.37495598326413 29.515520460252297 56.76675356469331 26.25 58.4534386192431 C 23.6375 59.80282985982681 22.0625 60.92782985982681 22.75 60.9534386192431 C 23.4375 60.979047378659395 26.25 59.875 29 58.5 C 31.75 57.125 34.23817111667462 56.1125 34.529269148165824 56.25 C 34.820367179657026 56.3875 32.345453554860505 63.7 29.029461093062444 72.5 C 25.713468631264384 81.3 23.00574038347989 88.725 23.012287209096897 89 C 23.0188340347139 89.275 27.63124765951042 88.6810762254047 33.26209526420027 87.6801693897882 C 40.76577773368754 86.34635828295767 46.30421966575744 86.00010990743228 54 86.38369180373768 C 59.775000000000006 86.67153596702637 67.425 87.55522121927095 71 88.3474368087256 C 74.575 89.13965239818027 77.725 89.60730400533916 78 89.38666260241203 C 78.275 89.16602119948489 75.8 81.56358077962211 72.5 72.49235055827253 C 69.2 63.421120336922954 66.725 55.79461001753481 67 55.54454984852109 C 67.275 55.29448967950738 69.75 56.12540838377556 72.5 57.391035858005935 C 75.25 58.65666333223631 78.625 60.00520879078103 80 60.38780354366088 L 82.5 61.08343036707877 L 80 59.60896808238901 C 78.625 58.79801382580965 77.3875 57.204241993216925 77.25 56.06725289884963 C 77.04282017311849 54.354080508033725 77.42820173118484 54.08564034623697 79.5 54.5 C 80.875 54.775 82.00958486721518 54.6625 82.02129970492264 54.25 C 82.0330145426301 53.8375 77.1955145426301 52.274290858136325 71.27129970492264 50.77620190696962 C 65.34708486721519 49.278112955802904 57.575 47.83090991228633 54 47.56019514359946 Z M 46.25 49.09968002535062 C 49.860422214177106 49.184359314253115 50.12377777304536 49.31984746858685 48 50 C 46.625 50.44035197211432 44.7125 50.84549596070654 43.75 50.90031997464938 C 42.7875 50.95514398859222 42 50.55 42 50 C 42 49.45 43.9125 49.04485601140778 46.25 49.09968002535062 Z M 55 49 C 56.65 49 57.99513671761397 49.3375 57.98919270580881 49.75 C 57.983248694003656 50.1625 56.633248694003655 50.3875 54.98919270580881 50.25 C 53.34513671761397 50.1125 52 49.775 52 49.5 C 52 49.225 53.35 49 55 49 Z M 64.53993473511832 50.5 C 67.01154585759228 51.05 69.02617418320273 52.0625 69.01688656980821 52.75 C 69.0053088263737 53.60702303413291 67.97825988874555 53.82373407056063 65.75 53.43932486904658 C 63.962500000000006 53.1309535470222 63.031438713955396 53.2434535470222 63.680974919900876 53.68932486904658 C 64.33051112584634 54.13519619107096 67.48051112584635 62.02416502689679 70.68097491990088 71.2203667264373 C 73.88143871395539 80.41656842597783 76.1625 87.95406842597784 75.75 87.9703667264373 C 75.3375 87.98666502689679 71.7375 87.30145931463564 67.75 86.44768736585696 C 63.7625 85.59391541707829 56.225 84.89712771900935 51 84.89927025903708 C 45.775 84.90141279906481 37.9 85.5870486505423 33.5 86.4229054845426 C 29.1 87.25876231854289 25.37526206529173 87.84305001661184 25.222804589537173 87.72132259136248 C 25.070347113782617 87.59959516611312 27.44433636042603 80.75 30.498336248744753 72.5 C 33.55233613706348 64.25 35.81457407177175 56.9375 35.52553165920758 56.25 C 35.23648924664341 55.5625 34.325 55 33.5 55 C 32.675 55 31.989583333333336 54.2125 31.976851851851855 53.25 C 31.96146434087497 52.08670417014744 33.05105779972022 51.244446783031016 35.226851851851855 50.73774509803921 C 37.02708333333334 50.318504901960786 39.0625 49.98100490196079 39.75 49.98774509803921 C 40.4375 49.994485294117645 41.01785762006509 50.3375 41.039683600144635 50.75 C 41.06150958022418 51.1625 39.71150958022418 52.0625 38.039683600144635 52.75 C 36.36785762006509 53.4375 35.225 54.45 35.5 55 C 35.79717564684117 55.59435129368234 37.521182648691244 55.17482765272591 39.75 53.96579568867676 C 41.97995423083531 52.75614701923177 45.72940046144154 51.84411955773296 49 51.71579568867676 C 52.025 51.59710805990454 56.525 51.81395281388512 59 52.19767291974472 C 61.475 52.58139302560431 62.7125 52.69389302560431 61.75 52.44767291974472 C 60.7875 52.20145281388512 60.010371674389546 51.4375 60.0230481653101 50.75 C 60.04079308943148 49.78761731776532 61.080100929318206 49.73009385421225 64.53993473511832 50.5 Z M 70.75 52.013654683292444 C 71.1625 52.021164759103286 72.5125 52.24616475910329 73.75 52.513654683292444 C 75.17121822776414 52.82085594066689 76 53.73669490865409 76 55 C 76 56.1 75.775 57 75.5 57 C 75.225 57 73.875 56.55 72.5 56 C 71.125 55.45 70 54.325 70 53.5 C 70 52.675 70.3375 52.0061446074816 70.75 52.013654683292444 Z "
     fill="#000000"
     transform="matrix(1 0 0 1 -1.62 -2.43)"
     id="path7" />
  <path
     style="fill:none;fill-rule:evenodd;stroke:#000000;stroke-width:1px;stroke-linecap:butt;stroke-linejoin:miter;stroke-opacity:1"
     d="M 41.872882,58.576272 C 28.39261,67.789971 44.622609,69.136912 31.347458,81.228814"
     id="path3341"
     inkscape:connector-curvature="0"
     sodipodi:nodetypes="cc" />
  <path
     style="fill:none;fill-rule:evenodd;stroke:#000000;stroke-width:1px;stroke-linecap:butt;stroke-linejoin:miter;stroke-opacity:1"
     d="M 64.095074,61.229202 C 50.614802,70.442901 65.929547,72.018655 54.027277,79.076659"
     id="path3341-3"
     inkscape:connector-curvature="0"
     sodipodi:nodetypes="cc" />
  <path
     style="fill:none;fill-rule:evenodd;stroke:#000000;stroke-width:1px;stroke-linecap:butt;stroke-linejoin:miter;stroke-opacity:1"
     d="M 54.484904,50.932592 C 41.004632,60.146291 57.234631,61.493231 43.95948,73.585133"
     id="path3341-0"
     inkscape:connector-curvature="0"
     sodipodi:nodetypes="cc" />
</svg>
