<?xml version="1.0" standalone="no"?>
<svg width="105" height="108" viewBox="0 0 105 108" xmlns="http://www.w3.org/2000/svg" xmlns:xlink="http://www.w3.org/1999/xlink" version="1.1"><!--?xml version="1.0" encoding="utf-8"?-->
<!-- Generator: Adobe Illustrator 15.0.2, SVG Export Plug-In . SVG Version: 6.00 Build 0)  -->

<svg version="1.1" id="Ebene_1" xmlns="http://www.w3.org/2000/svg" xmlns:xlink="http://www.w3.org/1999/xlink" x="0px" y="0px" width="100px" height="100px" viewBox="0 0 100 100" enable-background="new 0 0 100 100" xml:space="preserve">
<circle fill="#B2B2B2" cx="50" cy="50" r="50"></circle></svg><path d="M 11.75 26.75 L 8 26 L 9.75 29.475396306658546 L 11.5 32.95079261331709 L 19.25 32.975396306658546 L 27 33 L 27 36 L 27 39 L 19.5 39 L 12 39 L 12 41 L 12 43 L 19.25 42.993514733923604 L 26.5 42.987029467847215 L 25.727834701813297 55.743514733923604 C 25.303143787810612 62.75958163026563 24.62814378781061 71.99217368354778 24.227834701813297 76.26038596343949 L 23.5 84.02077192687898 L 26.75 84.01038596343949 L 30 84 L 30.75 63.57807126134363 L 31.5 43.15614252268726 L 49.75 43.07807126134363 L 68 43 L 67.99750336764005 51.25 C 67.99613021984207 55.7875 68.33363021984208 65.01481727306269 68.74750336764005 71.75514949569487 L 69.5 84.01029899138975 L 72.75 84.00514949569487 L 76 84 L 75.42743704505892 75.25 C 75.11252741984134 70.4375 74.55002741984134 61.21296233026506 74.17743704505892 54.75102740058901 L 73.5 43.002054801178026 L 79.75 43.00102740058901 L 86 43 L 86 41 L 86 39 L 79.5 39 L 73 39 L 73 36 L 73 33 L 80 33 L 87 33 L 87 31.5 C 87 30.675 87.9 29.775 89 29.5 C 90.1 29.225 91 28.325 91 27.5 L 91 26 L 87.25 26.75 C 85.1875 27.1625 68.2 27.5 49.5 27.5 C 30.799999999999997 27.5 13.8125 27.1625 11.75 26.75 Z M 38 33 L 45 33 L 45 36 L 45 39 L 38 39 L 31 39 L 31 36 L 31 33 L 38 33 Z M 61.5 33 L 68 33 L 68 36 L 68 39 L 61.5 39 L 55 39 L 55 36 L 55 33 L 61.5 33 Z M 38.5 44 C 38.225 44 37.775 44.45 37.5 45 C 37.225 45.55 37.436316091344665 46.7875 37.969591314099254 47.75 L 38.93918262819851 49.5 L 38.969591314099254 46.75 C 38.98631609134466 45.2375 38.775 44 38.5 44 Z M 45.5 44 C 45.225 44 44.81375033180366 44.5625 44.586111848452575 45.25 C 44.35847336510149 45.9375 44.576582616568814 47.175 45.07079907393551 48 L 45.96937445096587 49.5 L 45.984687225482936 46.75 C 45.993109251467324 45.2375 45.775 44 45.5 44 Z M 54.5 44 C 54.225 44 53.94256956528219 44.3375 53.87237681173819 44.75 C 53.8021840581942 45.1625 53.6896840581942 46.51006211143857 53.62237681173819 47.744582469863495 C 53.55506956528219 48.97910282828842 53.8375 49.991602828288414 54.25 49.994582469863495 C 54.6625 49.997562111438576 55 48.65 55 47 C 55 45.35 54.775 44 54.5 44 Z M 62.233333333333334 44.75 L 60.96666666666667 43.5 L 60.96666666666667 46 L 60.96666666666667 48.5 L 62.233333333333334 47.25 L 63.5 46 L 62.233333333333334 44.75 Z M 26.5 85 L 22 85 L 22 86.5 L 22 88 L 26.5 88 L 31 88 L 31 86.5 L 31 85 L 26.5 85 Z M 72.5 85 L 67 85 L 67 86.5 L 67 88 L 72.5 88 L 78 88 L 78 86.5 L 78 85 L 72.5 85 Z " fill="#000000"></path></svg>
