<?xml version="1.0" standalone="no"?>
<svg width="105" height="108" viewBox="0 0 105 108" xmlns="http://www.w3.org/2000/svg" xmlns:xlink="http://www.w3.org/1999/xlink" version="1.1"><!--?xml version="1.0" encoding="utf-8"?-->
<!-- Generator: Adobe Illustrator 15.0.2, SVG Export Plug-In . SVG Version: 6.00 Build 0)  -->

<svg version="1.1" id="Ebene_1" xmlns="http://www.w3.org/2000/svg" xmlns:xlink="http://www.w3.org/1999/xlink" x="0px" y="0px" width="100px" height="100px" viewBox="0 0 100 100" enable-background="new 0 0 100 100" xml:space="preserve">
<circle fill="#B2B2B2" cx="50" cy="50" r="50"></circle></svg><path d="M 22.25 35.98301676366101 C 21.2875 35.97367598367457 19.65032788045669 36.53617598367457 18.6118397343482 37.23301676366101 L 16.7236794686964 38.5 L 17.8618397343482 41.75 L 19 45 L 17.25 44.983333333333334 C 16.2875 44.97416666666667 15.05 45.38954042726632 14.5 45.90638613466589 C 13.95 46.423231842065455 12.15 47.0146368554347 10.5 47.220619497708654 L 7.5 47.59513339275221 L 13 48.342123258725394 L 18.5 49.089113124698585 L 20.646524686188947 52.79455656234929 C 21.827113263592864 54.83255045305718 23.514613263592864 57.0625 24.396524686188947 57.75 L 26 59 L 25.435797169499583 63.75 L 24.871594338999166 68.5 L 27.185797169499583 71.38419982425552 L 29.5 74.26839964851102 L 27.78895474515891 75.38419982425552 C 26.84787985499631 75.99788992091499 26.060379854996313 76.8375 26.03895474515891 77.25 C 26.01752963532151 77.6625 27.8 78 30 78 L 34 78 L 34 76 L 34 74 L 31.04774325645773 70.75 L 28.095486512915457 67.5 L 29.04774325645773 65.75 C 29.571484465405977 64.7875 30.5625 64.0164305946198 31.25 64.03651243248845 C 31.9375 64.0565942703571 33.7375 66.0815942703571 35.25 68.53651243248845 L 38 73 L 37.5 75 L 37 77 L 37.5 78 L 38 79 L 40 78.5 L 42 78 L 42.03102399971855 76.25 C 42.04808719956375 75.2875 41.477797123729765 73.375 40.76371272008747 72 C 40.04962831644517 70.625 38.685667516571826 68.2625 37.73268872036892 66.75 L 36 64 L 36.512469821281925 62.25 L 37.02493964256386 60.5 L 35.012469821281925 57.25 L 33 54 L 35.75 53.41246277509639 L 38.5 52.82492555019277 L 40.722800690896804 55.16246277509639 C 41.945341070890045 56.448108248793375 42.884024123525386 57.725 42.808763030086446 58 C 42.73350193664751 58.275 42.99120170024516 59.85 43.381429171414574 61.5 C 43.771656642583984 63.15 44.520473589948644 66.1875 45.04546683222493 68.25 L 46 72 L 50 72 L 54 72 L 53.75 74.50260380507706 C 53.6125 75.87903589786946 53.05 76.99653589786946 52.5 76.98593713841043 L 51.5 76.96666666666675 L 52.5 78.02674091872147 L 53.5 79.08681517077619 L 56.5 78.7934075853881 L 59.5 78.5 L 59.176039326333196 76.5 C 58.99786095581645 75.4 58.73066205441092 73.375 58.582263989876466 72 C 58.43386592534201 70.625 58.24214822849208 68.9375 58.15622466354327 68.25 L 58 67 L 56 67.5 L 54 68 L 53.5 67 C 53.225 66.45 53.629501409216026 64.9875 54.39889202048006 63.75 L 55.797784040960124 61.5 L 53.64889202048006 57.72731599337227 C 52.467001409216024 55.65233978972702 51.1625 53.96483978972702 50.75 53.97731599337227 C 50.3375 53.98979219701752 50.225 53.55 50.5 53 C 50.775 52.45 50.4375 51.25099698447853 49.75 50.335548854396734 L 48.5 48.671097708793475 L 54 49.35196875243527 C 57.025 49.72644782643825 59.725 50.29206722546256 60 50.608900750267054 C 60.275 50.92573427507154 60.725 54.74648971170727 61 59.099468387235326 L 61.5 67.01397507001361 L 63.5 67.01936615374231 L 65.5 67.02475723747102 L 67.75 70.51237861873551 L 70 74 L 68.25 76.70623908727526 L 66.5 79.41247817455053 L 73.5 78.63502472261396 C 77.35 78.20742532404886 80.8375 77.66461773477498 81.25 77.4287856353387 L 82 77 L 81.25 75.61485603688371 C 80.8375 74.85302685716975 78.53910340071138 72.71552685716975 76.14245200158085 70.86485603688371 L 71.7849040031617 67.5 L 71.64245200158085 62.417315044063265 L 71.5 57.33463008812653 L 70.2459625129685 55.917315044063265 L 68.99192502593701 54.5 L 69.4959625129685 52.75 L 70 51 L 73.25 50.82894975957214 C 75.0375 50.734872127336814 77.175 50.557706761044614 78 50.435248945589464 C 78.825 50.31279113013432 83.6625 50.164763738326855 88.75 50.106299186017324 L 98 50 L 97.5 49 L 97 48 L 87.25 47.984819337642506 L 77.5 47.96963867528502 L 73 46.619661971634585 L 68.5 45.269685267984144 L 68.5 42.66368953662472 C 68.5 41.23039188437704 67.7125 39.14471269908061 66.75 38.02884690263265 L 65 36 L 62.75936665170322 36.25 L 60.51873330340644 36.5 L 59.25936665170322 39.25 L 58 42 L 59.474721792999496 43.75 C 60.28581877914922 44.7125 60.96081877914922 46.0625 60.974721792999496 46.75 C 60.98862480684977 47.4375 60.325 48 59.5 48 C 58.675 48 55.6375 47.10022690082111 52.75 46.000504224046914 C 49.8625 44.900781547272715 46.7125 44.000781547272716 45.75 44.000504224046914 L 44 44 L 44 41 L 44 38 L 42 37 L 40 36 L 38.25 36.86254775753339 C 37.2875 37.33694902417676 36.152243092965904 38.57444902417676 35.72720687325757 39.61254775753339 L 34.954413746515144 41.5 L 35.97720687325757 42.25 L 37 43 L 35 45 C 33.9 46.1 32.325 47 31.5 47 C 30.675 47 30 46.55 30 46 C 30 45.45 29.1 44.775 28 44.5 L 26 44 L 26 42 C 26 40.9 25.55 39.1 25 38 L 24 36 L 22.25 35.98301676366101 Z M 32 49 L 33 49 L 33.04452535106988 51.75 L 33.089050702139765 54.5 L 31.54452535106988 53.25 L 30 52 L 30.5 50.5 C 30.775 49.675 31.450000000000003 49 32 49 Z M 74 73 C 74.55 73 75 73.675 75 74.5 C 75 75.325 74.775 76 74.5 76 C 74.225 76 73.775 75.325 73.5 74.5 L 73 73 L 74 73 Z " fill="#000000"></path></svg>
